<?xml version="1.0" encoding="UTF-8" standalone="no"?>
<svg xmlns:rdf="http://www.w3.org/1999/02/22-rdf-syntax-ns#" xmlns="http://www.w3.org/2000/svg" height="253.47mm" width="503.5mm" version="1.1" xmlns:cc="http://creativecommons.org/ns#" xmlns:dc="http://purl.org/dc/elements/1.1/" viewBox="0 0 503.50208 253.47086">
 <metadata>
  <rdf:RDF>
   <cc:Work rdf:about="">
    <dc:format>image/svg+xml</dc:format>
    <dc:type rdf:resource="http://purl.org/dc/dcmitype/StillImage"/>
    <dc:title/>
   </cc:Work>
  </rdf:RDF>
 </metadata>
 <g transform="translate(266.87 -51.58)" fill="#f2f2f2">
  <path d="m-247.59 262.98c-0.89817-3.804-1.2334-3.9647-9.5968-4.598-5.9068-0.44733-6.1495-0.35152-8.2319 3.2486-1.789 3.093-2.6343 3.6048-5.0856 3.0795-4.8152-1.0319-20.096-8.2939-20.741-9.8567-0.32841-0.79613 0.26603-3.0002 1.321-4.8979 1.9112-3.4381 1.9021-3.4668-2.5538-8.0298-2.4596-2.5187-5.0043-4.5003-5.655-4.4036-0.65066 0.0967-2.8167 0.51141-4.8134 0.92156-3.4729 0.71338-3.7404 0.50792-6.1662-4.7377-1.3947-3.0159-3.1322-8.0704-3.8612-11.232-1.1844-5.1373-1.0987-5.9032 0.80502-7.1981 1.1717-0.79701 3.1042-1.4491 4.2945-1.4491 2.5091 0 2.8533-0.77744 3.6781-8.3096 0.60182-5.4956 0.55215-5.6006-3.5027-7.3993-3.4353-1.5239-3.9788-2.2278-3.2978-4.2708 1.2256-3.6766 7.1667-14.114 9.7817-17.184 2.2849-2.6828 2.3379-2.6894 6.5702-0.81194l4.2667 1.8927 5.2637-4.093c5.0314-3.9123 5.2318-4.2911 4.5398-8.5833l-0.72388-4.4904 5.9249-2.371c7.4257-2.9716 16.998-5.0681 19.334-4.2344 0.97736 0.34887 2.1336 2.1444 2.5693 3.9901 0.68876 2.9171 1.2989 3.3557 4.6678 3.3557 2.1315 0 5.5083 0.30377 7.5038 0.67504 3.2933 0.61272 3.816 0.30896 5.6609-3.29 2.3284-4.542 2.3861-4.5394 14.776 0.67412 4.3426 1.8273 8.7469 4.1974 9.7874 5.267 1.7381 1.7866 1.7382 2.221 0.001 5.3454-1.8702 3.3643-1.8432 3.4534 2.5155 8.3041 4.8659 5.4151 4.7696 5.3762 9.327 3.7644 2.412-0.85307 3.5922-0.78444 4.7025 0.27349 2.1867 2.0835 6.0115 11.741 6.9463 17.54l0.81557 5.0592-4.8258 1.2088c-4.5454 1.1385-4.8267 1.4447-4.8418 5.2689-0.009 2.2331-0.3303 5.1505-0.71437 6.4831-0.57212 1.9851 0.0683 2.7631 3.544 4.3049 2.3333 1.035 4.2423 2.297 4.2423 2.8044 0 1.606-7.1962 14.387-10.185 18.089-2.7895 3.4554-2.9652 3.5089-6.2799 1.9144-4.7409-2.2806-5.3615-2.1516-11.092 2.3046-4.9238 3.8286-5.0361 4.0583-3.8071 7.7834 1.1018 3.3395 0.97004 4.0398-1.0137 5.3892-3.2006 2.1771-16.493 5.8553-21.16 5.8553-3.3947 0-4.001-0.43374-4.691-3.3558zm5.39-27.925c4.8538-1.3252 7.805-3.0981 12.292-7.3841 9.1345-8.7255 11.159-18.376 6.0118-28.658-4.9172-9.8229-13.489-14.731-25.697-14.713-25.322 0.0366-39.714 26.176-23.568 42.801 8.5261 8.779 18.527 11.348 30.96 7.9533z"/>
  <path d="m-270.48 121.9c-2.7668-1.3954-3.3643-2.0549-3.2011-3.5331 0.27361-2.4774-1.9436-4.809-4.0664-4.2762-1.4324 0.35952-1.8315-0.0741-2.8679-3.1157-1.5083-4.4267-1.5044-4.521 0.20796-4.9688 2.065-0.54 2.5815-4.9313 0.69857-5.939-1.3692-0.73279-1.3574-0.87132 0.33636-3.9284 1.3646-2.4631 2.195-3.1689 3.7283-3.1689 2.5096 0 5.3219-2.47 4.7748-4.1936-0.30799-0.97038 0.35509-1.6006 2.6504-2.519 3.9996-1.6003 5.095-1.5449 5.6764 0.28706 0.61845 1.9486 4.7097 2.0799 6.0876 0.19544 0.90686-1.2402 1.1662-1.2176 4.4769 0.39091 2.8702 1.3945 3.4269 1.9827 3.0374 3.2099-0.6633 2.0899 1.7916 4.9673 3.9728 4.6565 1.7397-0.24785 2.3779 0.72194 3.4828 5.2919 0.38294 1.584 0.17707 2.1268-0.94108 2.4817-2.0059 0.63667-2.5549 4.8004-0.77913 5.9094 1.25 0.78068 1.2187 1.0523-0.51654 4.4766-1.6393 3.235-2.0616 3.5918-3.7499 3.168-2.4078-0.60434-5.0899 1.5834-4.4424 3.6236 0.78264 2.4659-7.1522 4.9086-8.512 2.6204-0.33249-0.55949-1.6659-1.2225-2.963-1.4734-1.8805-0.36363-2.4934-0.15443-3.0238 1.032-0.65494 1.465-0.71817 1.4615-4.0671-0.22755zm13.581-9.5335c9.9185-5.3194 3.8724-19.699-7.0183-16.692-2.9249 0.8076-6.2894 4.2596-7.0308 7.2138-0.70296 2.8008 1.3228 7.2201 4.1978 9.1575 3.0801 2.0757 6.3788 2.1831 9.8514 0.32073z"/>
  <path d="m280.48 256.9c-0.54976-0.89293-1.3298-3.5375-1.7334-5.8768-0.40354-2.3393-1.0721-4.7291-1.4856-5.3106-0.41353-0.58154-4.0935-1.4768-8.1776-1.9894-4.0842-0.51265-9.1037-1.3584-11.155-1.8793-2.0509-0.52098-4.2124-0.93716-4.8033-0.92484-0.59094 0.0123-2.9958 2.5071-5.344 5.544-2.8066 3.6296-5.0011 5.529-6.4044 5.5433-6.9961 0.0711-41.095-19.075-41.095-23.075 0-0.39352 1.9761-3.1674 4.3914-6.1642 2.814-3.4915 4.0601-5.8407 3.469-6.54-0.50728-0.60023-3.5642-4.512-6.793-8.6929l-5.8707-7.6016-5.337 0.69564c-2.9353 0.38261-7.0095 0.72802-9.0536 0.76758-3.6232 0.0701-3.78-0.0796-6.2395-5.9583-5.4845-13.109-8.4423-32.822-5.2543-35.018 0.73384-0.50551 4.5645-1.4369 8.5126-2.0698 7.1251-1.1421 7.1827-1.1757 7.7729-4.529 0.32704-1.8581 1.4678-6.5932 2.5349-10.522l1.9402-7.1441-6.3209-3.391c-3.4765-1.865-6.5564-3.9244-6.8442-4.5763-0.80019-1.8124 2.1344-7.1723 8.7744-16.026 6.5638-8.7522 15.674-18.316 18.272-19.182 0.93632-0.31229 4.5755 1.0669 8.5012 3.2218l6.864 3.7678 3.2338-2.365c1.7786-1.3008 6.5017-4.0238 10.496-6.0513l7.2621-3.6863-1.4538-6.0277c-0.79956-3.3152-1.1791-6.6497-0.84349-7.4099 1.683-3.8119 33.556-10.508 45.858-9.6344l4.1885 0.29756 1.7084 6.1264c2.2105 7.9268 2.491 8.2507 7.1606 8.2679 2.1668 0.0081 6.8218 0.61931 10.344 1.3586 3.5224 0.73923 7.177 1.3589 8.1212 1.3771 0.94424 0.01818 3.486-2.2829 5.6483-5.1134 2.1623-2.8306 4.6342-5.3808 5.4932-5.6673 3.5991-1.2004 27.244 10.481 37.269 18.413l5.297 4.1906-4.6205 6.1639c-4.4307 5.9106-4.5487 6.2497-2.8722 8.253 4.1604 4.9714 11.247 13.984 11.532 14.665 0.17073 0.40878 3.889 0.10017 8.2628-0.6858 7.8816-1.4164 7.9695-1.4107 9.8763 0.63596 3.972 4.2634 9.3647 23.794 9.382 33.979 0.01 5.7368-0.89762 6.5171-9.1808 7.8958-7.0156 1.1677-8.9281 2.6044-9.0185 6.775-0.034 1.5608-0.90726 5.6562-1.9409 9.1008l-1.8793 6.263 6.7442 3.8191c3.7093 2.1005 6.7442 4.3659 6.7442 5.0343 0 5.5223-23.857 34.748-28.364 34.748-0.81479 0-4.1095-1.4612-7.3216-3.2471s-6.3945-3.2471-7.0721-3.2471c-0.67755 0-2.9822 1.1966-5.1214 2.6592s-6.6493 4.0063-10.022 5.6527c-5.0625 2.471-6.042 3.3428-5.612 4.9946 2.5132 9.6534 2.6856 11.074 1.4946 12.321-0.68203 0.7143-5.8597 2.5327-11.506 4.041-18.021 4.8139-36.418 6.267-38.409 3.0337zm15.015-52.269c20.85-3.7308 38.181-19.305 41.633-37.413 4.145-21.741-14.345-43.932-40.566-48.684-35.742-6.4784-70.216 20.457-64.437 50.347 3.2948 17.04 17.664 30.701 37.204 35.369 6.4168 1.5331 18.725 1.7124 26.165 0.38103z"/>
 </g>
</svg>
