<?xml version="1.0" encoding="UTF-8" standalone="no"?>
<svg xmlns:rdf="http://www.w3.org/1999/02/22-rdf-syntax-ns#" xmlns="http://www.w3.org/2000/svg" height="3834.3mm" width="28021mm" version="1.1" xmlns:cc="http://creativecommons.org/ns#" xmlns:dc="http://purl.org/dc/elements/1.1/" viewBox="0 0 28021.082 3834.3297">
 <metadata>
  <rdf:RDF>
   <cc:Work rdf:about="">
    <dc:format>image/svg+xml</dc:format>
    <dc:type rdf:resource="http://purl.org/dc/dcmitype/StillImage"/>
    <dc:title/>
   </cc:Work>
  </rdf:RDF>
 </metadata>
 <g transform="translate(14117 -158.26)" fill="#355C7D">
  <path stroke-width=".69184" d="m-3192.5 2527.9c0.043-3.7592 0.054-7.5188 0.1208-11.278 0.4681-5.3057 1.1504-10.602 1.5805-15.91 0.6269-6.8287-0.7063-13.59-2.6824-20.29-2.4984-8.4826-7.2797-16.506-13.514-24.177-7.8099-9.4409-19.23-17.288-31.098-24.802-13.485-8.4422-28.758-15.626-44.329-22.498-15.893-6.8276-32.696-12.754-49.819-18.292-16.946-5.2931-34.706-9.4081-52.87-12.75-18.384-3.4017-37.354-4.5182-56.448-4.4581-20.576 0.3074-40.264 4.1302-59.496 8.3441-19.265 4.584-37.738 10.321-55.983 16.272-43.762 16.039 11.517-4.2467 92.547-32.992 2.7381-0.9714-5.3912 2.0339-8.0278 3.1079-7.9185 3.2253-15.157 6.8433-22.358 10.648-14.711 7.8938-26.273 17.543-36.87 27.577-10.03 9.5902-18.536 19.71-25.459 30.295-6.8946 10.656-10.251 21.945-12.538 33.285-2.2157 12.052-2.4756 24.187-2.5782 36.302-0.2322 12.266 1.486 24.486 4.4298 36.602 3.1777 12.377 9.8166 24.162 17.857 35.603 7.9485 10.874 18.905 20.675 30.09 30.328 10.147 8.585 20.967 16.843 31.924 25.031 8.9141 6.6335 17.868 13.246 26.819 19.861 7.0457 5.1184 14.005 10.287 19.977 15.915 4.2184 3.9359 6.1904 8.2345 6.587 12.899-5.9151 30.138-77.55 46.089-125.09 43.968-7.9919-0.2469-15.998-0.2727-23.998-0.3331-11.024-0.085-22.049-0.142-33.073-0.2009-14.257-0.1447-28.529 0.096-42.756 0.6726-15.676 0.6506-31.097 2.3349-46.404 4.462-16.526 1.9694-32.471 5.3054-48.447 8.5054-16.288 3.2038-31.861 7.5466-47.145 12.247-38.785 13.015-92.714 32.717 87.205-31.36 2.5195-0.8974-5.0014 1.8352-7.4631 2.7926-6.4721 2.5171-8.2631 3.3669-14.547 6.0916-15.104 6.6357-28.073 14.827-39.982 23.562-12.292 9.4725-21.99 20.06-30.688 30.919-8.7909 10.877-14.864 22.417-19.512 34.204-4.3895 10.799-6.0747 21.83-6.0199 32.935 0.3443 11.398 3.8847 22.569 8.7491 33.519 5.6073 11.926 14.282 23.075 24.307 33.776 11.122 11.213 25.466 20.908 40.512 30.106 16.814 9.727 35.34 18.192 54.376 26.145 20.637 8.814 42.953 15.878 65.575 22.475 24.37 7.0009 49.684 12.596 75.128 17.871 26.486 5.6 53.748 9.4753 81.288 12.41 28.942 2.8769 58.181 4.2143 87.432 5.0922 29.031 0.82 58.063-0.021 87.007-1.4136 29.068-1.5876 57.702-5.0641 85.949-9.5113 28.89-4.456 56.643-11.145 83.97-18.38 29.363-8.0083 57.956-17.041 86.017-26.668 12.919-4.484 15.703-5.4195 28.524-9.993 4.686-1.6719 18.71-6.7235 14.027-5.0488-174.1 62.247-105.15 37.88-67.265 23.738 27.078-10.101 53.432-20.916 79.576-31.916 25.518-10.679 50.429-21.892 75.157-33.261 25.322-11.779 50.421-23.743 75.739-35.525 26.028-11.975 52.364-23.69 78.831-35.288 24.049-10.648 49.098-20.365 74.549-29.656 62.124-24.929 126.44-46.26 194.04-64.275 27.964-7.244 56.448-13.655 85.346-19.3 26.275-5.1431 53.139-8.9246 80.273-11.809 24.074-2.6902 48.489-2.7195 72.793-1.6406 20.869 1.3394 41.403 4.1051 61.429 7.9401 17.983 3.5864 35.408 8.1163 52.126 13.559 14.215 4.7139 27.972 9.9419 41.382 15.485 12.088 4.9816 23.746 10.364 34.885 16.134 9.8852 5.2886 19.201 10.954 28.434 16.673 6.3023 3.5367 11.561 7.8545 18.48 10.954 0.465 0.099 0.9632 0.4435 1.3945 0.2971 1.7023-0.578-0.1396-4.0234-1.8277-3.4309-170.55 59.821-96.788 65.752-109.07 37.636-3.1408-5.127-8.9421-9.3623-14.761-13.398-8.5849-5.9113-18.046-11.283-27.806-16.43-12.648-6.3332-26.709-11.351-41.128-15.932-16.423-4.948-33.271-9.3504-50.157-13.65-16.143-4.3575-33.042-7.2752-50.147-9.7254-16.488-2.5186-33.414-3.4643-50.299-4.2523-17.606-0.6869-35.236-0.021-52.646 1.6401-17.51 1.5233-34.662 4.2735-51.605 7.3536-16.064 2.8194-31.184 7.1214-45.745 12.126-42.027 15.604 6.3007-2.3732 94.892-33.821 2.4562-0.8719-4.819 1.8431-7.1866 2.805-7.2863 2.9599-14.151 6.2143-20.99 9.5526-13.833 6.8603-26.047 14.839-37.709 23.076-11.664 8.2847-21.649 17.379-30.948 26.724-9.2767 9.2206-16.712 19.045-23.38 29.076-6.4088 9.8813-10.837 20.191-14.867 30.527-3.8027 10.054-6.118 20.29-7.9582 30.544-1.7597 9.7254-1.5066 19.523-0.4692 29.27 1.199 9.5243 3.8598 18.921 7.4873 28.194 3.559 8.8118 9.1001 17.202 15.78 25.259 6.6751 7.9996 15.282 15.182 25.18 21.732 10.589 6.5496 23.436 11.221 36.696 15.343 14.084 4.2824 29.144 6.73 44.52 8.3768 16.473 1.8979 33.209 1.5839 49.732 0.228 19.972-1.757 38.468-6.6531 56.446-12.096 38.987-13 98.746-34.659-79.14 28.572-3.3584 1.1937 6.6542-2.4556 9.9449-3.7202 7.5427-2.8985 12.188-4.8426 19.598-7.8704 19.863-8.1298 38.315-17.457 56.497-26.954 20.966-10.942 40.125-23.098 58.62-35.613 20.181-13.517 37.746-28.358 54.373-43.589 17.27-15.917 32.635-32.572 47.306-49.449 14.934-17.402 27.727-35.466 40.24-53.575 12.191-17.724 22.702-35.862 32.739-54.091 8.9113-16.649 17.466-33.37 26.157-50.064 8.0721-15.746 15.801-31.558 23.842-47.311 9.672-18.58 19.896-37.043 30.596-55.406 11.055-18.595 22.331-37.14 34.194-55.542 10.34-16.211 21.696-32.156 33.826-47.878 13.507-17.035 27.851-33.806 41.932-50.659 15.176-18.249 30.542-36.438 45.836-54.648 14.309-17.319 28.556-34.658 42.943-51.952 12.058-14.105 23.345-28.449 34.041-42.969 8.8737-12.347 17.442-24.78 25.561-37.326 6.1317-9.6398 12.317-19.269 17.828-29.054 1.7679-0.2485 4.3216-12.623 3.1275-10.006-0.2396 0.5484-0.2841 1.1453-0.7193 1.6452-1.1737 1.3479-7.1568 4.1381-5.0043 3.388 192.91-67.224 129.39-50.177 95.656-32.986-13.862 7.8126-24.4 17.509-34.642 27.15-13.414 12.83-25.932 26.011-38.174 39.282-13.197 14.584-25.929 29.328-38.654 44.072-12.958 15.348-25.784 30.739-38.689 46.104-12.327 14.752-24.657 29.503-36.95 44.266-11.364 13.963-22.976 27.846-34.351 41.805-10.93 13.466-21.214 27.127-31.372 40.822-9.9477 13.455-19.661 26.976-29.286 40.521-9.9133 13.699-18.678 27.696-27.394 41.699-8.2991 13.263-15.794 26.707-23.252 40.158-7.2029 12.728-13.678 25.604-19.986 38.511-6.3132 12.706-11.956 25.534-17.326 38.404-5.168 12.134-9.4513 24.393-13.183 36.725-3.5344 11.955-6.7385 23.946-8.8931 36.029-2.0855 12.276-2.6095 24.618-2.0994 36.95 0.6013 12.37 2.6165 24.682 5.1195 36.951 2.5151 11.819 6.3518 23.509 10.582 35.132 4.0001 10.691 9.1636 21.174 15.135 31.498 5.6397 9.865 13.457 19.122 22.346 27.988 8.8175 8.7409 19.602 16.53 31.263 23.832 11.787 7.3345 25.503 13.145 39.694 18.503 14.24 5.301 29.798 8.8211 45.647 11.736 16.067 2.6401 32.606 3.7961 49.072 4.9892 15.754 1.0268 31.517 1.4159 47.338 1.0057 18.451-0.7002 36.202-3.7116 53.645-7.3176 20.334-4.1939 39.795-9.7702 58.728-15.958 3.2601-1.1558 6.52-2.3117 9.7798-3.4677-32.989 11.786-65.938 23.614-98.966 35.358-3.4163 1.2147 6.7789-2.4869 10.128-3.771 10.514-4.0301 20.654-8.361 30.748-12.78 20.827-9.2206 40.513-19.368 59.555-29.956 19.776-11.206 38.827-22.89 57.74-34.651 18.649-11.761 37.21-23.577 55.644-35.468 16.363-10.402 31.823-21.316 46.853-32.459 13.914-10.358 27.208-21.026 40.461-31.709 11.38-9.0522 22.101-18.404 32.549-27.876 8.5091-7.7581 16.925-15.556 25.383-23.335 4.0302-4.3433 10.002-7.9521 13.87-12.345 88.473-33.064 131.8-55.253 114.3-16.704-4.2065 8.4596-8.1676 16.963-12.035 25.484-4.8561 10.453-8.9816 21.025-12.814 31.637-3.9437 11.086-7.2191 22.257-10.267 33.45-3.0015 11.534-6.1869 23.049-9.1448 34.588-3.062 11.143-4.8836 22.388-5.9978 33.664-0.8224 10.439 0.114 20.886 1.5829 31.284 1.061 9.1329 4.8131 17.87 10.552 26.264 5.6245 7.8 13.998 14.598 22.865 21.064 8.4943 6.2792 18.588 11.452 29.388 16.106 11.528 4.5662 24.134 7.7755 37.117 10.334 14.35 2.7701 29.218 3.1587 44.094 2.5805 18.025-0.8127 35.57-3.5876 52.69-7.0543 46.22-11.222 135.85-46.17-54.008 21.538 22.592-8.9132 42.426-20.11 61.873-31.444 22.972-13.598 44.108-28.304 64.669-43.295 19.571-14.194 38.166-28.879 56.405-43.735 17.264-13.924 33.909-28.126 49.93-42.61 15.342-14.459 30.634-28.94 45.831-43.459 12.548-12.144 25.502-24.122 38.559-36.056 10.313-9.2659 20.749-18.477 30.94-27.796 8.1124-7.3988 16.035-14.878 24.234-22.239 6.2037-5.4457 12.273-10.954 18.803-16.252 30.409-22.06 86.091-60.066 127.52-43.192 7.3218 4.9929 6.0056 10.069 2.8257 15.909-4.4295 7.4425-8.9089 14.874-13.24 22.339-5.7894 10.074-11.122 20.246-16.58 30.39-5.9425 11.229-11.759 22.484-17.235 33.805-5.4313 11.187-9.972 22.528-14.291 33.896-4.0978 10.926-7.7968 21.908-10.863 32.964-2.9353 9.817-4.2651 19.759-4.9628 29.722-0.65477 8.5746-0.41274 17.152 1.004 25.689 1.5163 8.0835 4.5245 15.986 8.4374 23.739 3.7724 7.3357 8.6388 14.419 14.132 21.315 5.5508 6.8346 12.602 13.107 20.124 19.147 7.6971 6.0508 16.591 11.402 26.293 16.188 9.9967 4.9066 21.363 8.4145 33.622 10.484 15.343 2.3783 30.807 0.9793 45.935-1.2125 22.148-3.6513 42.918-9.6878 63.099-16.312 38.736-13.484 100.73-35.582-76.961 27.652-3.4446 1.2258 6.8282-2.5174 10.208-3.8108 8.8439-3.3843 11.294-4.4524 19.956-8.0089 21.088-8.6668 40.823-18.477 59.978-28.703 21.558-11.743 41.912-24.29 62.024-36.971 21.253-13.438 42.308-26.995 63.454-40.497 20.459-13.065 41.271-25.912 62.282-38.633 19.757-11.957 40.489-23.264 61.827-34.117 22.203-11.042 45.481-21.207 69.082-31.052 58.265-23.458 118.34-45.316 179.84-65.321 23.708-7.9025 48.702-14.005 74.144-19.353 23.595-5.0789 47.961-8.5087 72.385-11.625 21.913-2.6508 44.151-4.043 66.43-4.7017 20.129-0.4669 40.271-0.3939 60.408-0.2534 18.109 0.6507 36.704-0.5475 54.146 2.8494 15.98 3.5377 30.603 8.9105 44.798 14.595 11.96 4.8403 23.694 9.8901 35.618 14.764 6.9458 2.738 13.821 5.6567 21.711 7.2266 4.1504 0.3069 8.2747 0.7255 12.394 1.1633 2.9408 0.5172 5.2952 0.8966 8.1241 0.3973 15.031-28.584-120.09 64.978-106.58 37.902-2.9692-3.1361-7.4522-5.6245-11.744-8.0513-7.999-4.7041-17.048-8.6123-25.998-12.569-11.323-4.8158-23.043-9.2168-34.844-13.558-11.953-4.39-24.031-8.6499-36.165-12.843-11.711-4.1538-24.416-6.9731-37.233-9.4719-13.698-2.6821-27.93-3.9429-42.108-5.1792-14.925-1.3406-29.923-1.1582-44.933-0.7966-14.901 0.4687-29.566 2.11-44.184 3.8545-14.76 1.827-29.025 4.8156-43.08 8.1042-14.886 3.5178-29.138 7.956-43.011 12.792-41.981 15.211 5.3418-1.9459 95.497-34.142 2.3338-0.8333-4.6486 1.6871-6.9484 2.556-6.9322 2.6198-13.651 5.4171-20.337 8.2705-13.418 5.7341-25.972 12.168-37.955 19.005-12.203 6.9622-23.181 14.661-33.754 22.567-10.392 7.7902-19.407 16.218-28.287 24.681-8.4727 8.1364-16.256 16.532-23.548 25.095-7.4207 8.6445-13.231 17.738-18.142 27.031-4.9738 9.4218-7.3888 19.202-9.0333 29.029-1.5669 9.7544-0.43062 19.534 1.1225 29.253 1.5378 9.5657 5.1995 18.899 9.8054 28.053 4.4125 8.7001 10.696 16.928 18.177 24.755 7.5963 7.624 16.68 14.619 26.307 21.281 10.08 6.9797 21.181 13.331 32.424 19.571 11.481 6.2268 23.768 11.861 36.22 17.311 11.897 5.0532 24.124 9.8006 36.51 14.375 10.576 3.822 21.083 7.7221 31.788 11.405 8.9809 3.0461 17.959 6.1282 27.319 8.7049 7.6903 2.1181 15.492 4.0824 23.391 5.8786 7.6901 1.8283 15.743 2.8937 23.917 3.4152 10.766 0.6511 21.604 0.5162 32.401 0.344 14.244-0.258 28.499-0.2479 42.732-0.6851 17.277-0.4206 34.529-1.0335 51.74-2.0672 19.877-1.283 39.477-3.7402 58.962-6.4324 21.433-2.9493 42.544-6.6657 63.506-10.692 22.949-4.5782 44.762-10.922 66.271-17.604 45.622-14.248 147.44-51.618-44.841 17.153 19.705-7.0888 38.593-14.974 57.039-23.253 17.791-8.1157 34.536-17.064 50.9-26.25 16.649-9.4201 31.428-19.988 45.825-30.713 14.783-11.066 28.65-22.586 42.273-34.207 13.428-11.61 25.767-23.68 37.827-35.848 11.837-12.21 23.424-24.514 35.279-36.717 11.299-11.684 23.106-23.171 35.019-34.616 11.124-10.686 22.31-21.347 34.488-31.584 11.564-9.7331 25.38-18.212 40.197-26.009 48.536-22.934 102.79-41.084 156.86-58.415 15.304-4.7184 31.351-8.2945 47.652-11.405 15.249-2.6582 30.888-4.1806 46.672-4.7995 15.735-0.5702 31.272 0.7088 46.642 2.6463 16.861 2.3786 32.775 6.5338 48.264 11.213 15.733 4.7515 30.528 10.503 44.581 16.947 13.549 6.4406 25.839 13.808 37.777 21.356 10.115 6.6793 19.942 13.524 29.8 20.349 7.792 5.3014 15.366 10.721 23 16.109 4.1242 2.91 8.1166 5.9107 13.028 8.3261 2.3403 2.011 1.5386-0.7986 1.0694-0.6402-225.06 75.913-105.52 63.637-110.58 36.061-1.6183-4.6888-5.3074-8.9486-8.7875-13.185-4.7141-5.8562-11.108-11.052-17.962-15.988-8.7661-6.3724-19.061-11.8-29.629-16.971-12.468-6.0972-25.895-11.355-39.264-16.64-13.929-5.4305-28.483-10.128-43.504-14.266-15.155-4.1882-31.254-6.7316-47.539-8.5076-17.851-1.6755-35.901-2.0039-53.918-1.7108-19.137 0.4069-38.045 2.2796-56.775 4.6394-18.754 2.3261-36.889 6.0333-54.387 10.781 17.048-7.957-43.867 15.223-24.974 8.525 176.05-62.416 121.05-45.613 84.858-29.011-16.474 7.9473-30.793 17.409-44.336 27.214-13.572 9.9315-25.856 20.498-37.869 31.164-11.307 10.057-21.473 20.574-31.143 31.261-9.1221 10.107-17.189 20.546-24.276 31.258-6.7237 10.428-11.45 21.279-15.155 32.254-3.544 10.418-4.9907 20.993-4.6175 31.621 0.5527 10.139 3.6768 20.09 7.5861 29.907 3.9767 9.6443 10.222 18.818 17.854 27.547 8.0958 9.1089 18.588 17.237 29.433 25.12 10.5 7.5302 21.893 14.524 33.965 21.072 10.616 5.8513 22.394 10.669 35.173 14.465 13.77 3.6726 28.497 5.3477 43.297 6.391 16.982 1.0631 34.017 0.3891 50.92-0.7987 17.326-1.0638 34.324-3.647 50.805-7.0701 46.116-10.83 130.72-44.236-60.197 23.938 17.133-6.2432 32.927-13.714 47.739-21.902 15.784-8.7415 28.652-19.115 40.712-29.831 12.568-11.373 23.675-23.324 34.531-35.346 11.008-11.873 20.562-24.219 29.576-36.712 8.1641-11.624 15.749-23.4 23.191-35.207 6.2621-9.902 12.195-19.883 18.136-29.86 4.7349-7.962 9.4595-15.926 14.185-23.89 3.2834-5.4839 6.4773-10.993 9.9889-16.422 8.7344-28.01 122.32-63.168 118.69-29.881-1.514 6.5594-3.4517 13.08-5.071 19.632-2.5529 9.0353-4.3989 18.134-6.2883 27.229-2.3878 10.795-4.5089 21.611-6.4541 32.44-2.1386 11.174-4.4048 22.338-6.5399 33.513-1.9081 10.184-3.8343 20.366-5.1156 30.588-1.3659 9.4386-1.4862 18.903-0.8369 28.363 0.6226 8.4787 2.4307 16.872 5.5786 25.127 2.6592 7.2397 8.4131 13.603 15.679 19.413 7.3761 5.422 16.288 9.8835 25.824 13.75 8.9387 3.8212 18.606 6.3293 29.148 7.7755 12.266 1.4508 24.59 0.809 36.824-0.3106 15.002-1.4119 29.433-4.2092 43.622-7.4627 7.7377-2.0085 15.367-4.2457 22.703-6.7747 2.5229-0.8698 9.9458-3.6373 7.4431-2.7453-99.018 35.292-135.78 49.086-94.172 33.524 16.128-6.1631 31.087-13.36 45.388-21.042 16.407-8.8767 30.098-19.406 43.255-30.106 14.219-11.63 26.987-23.884 38.982-36.431 14.065-14.991 26.033-30.678 38.251-46.264 13.427-17.077 26.411-34.288 38.692-51.695 13.181-18.899 25.295-38.072 37.313-57.264 13.029-20.752 25.98-41.522 38.534-62.388 13.053-21.618 24.35-43.611 35.393-65.648 11.982-23.886 23.024-47.95 33.871-72.042 10.961-23.98 19.709-48.312 28.039-72.686 7.5415-22.444 14.407-44.971 21.29-67.496 5.5352-18.151 11.05-36.305 16.566-54.458 4.0398-13.357 8.2387-26.695 12.102-40.073 2.1339-7.9724 4.5067-15.918 6.9714-23.853 1.3354-4.4968 2.5809-9.0163 3.3097-13.569 27.42 26.776-83.501 35.662 110.72-32.21 3.0793-1.0761-4.1398 3.5607-5.9981 5.4267-8.2007 9.2893-14.282 19.227-20.539 29.061-8.7543 13.768-16.908 27.677-24.996 41.599-8.7869 15.54-18.08 30.964-27.47 46.366-9.3118 15.333-19.147 30.541-28.979 45.747-9.6262 14.883-19.092 29.806-28.345 44.781-9.3392 15.446-18.854 30.85-28.367 46.256-9.2539 15.047-18.178 30.172-26.942 45.331-8.2108 14.473-15.839 29.068-23.519 43.652-7.2712 13.753-14.328 27.55-21.349 41.354-6.7109 13.049-12.501 26.268-18.449 39.455-5.8931 12.852-11.072 25.82-15.898 38.84-4.7855 13.053-8.8078 26.206-12.599 39.382-3.5845 12.604-6.7399 25.252-9.8018 37.907-2.8478 11.374-4.7066 22.831-6.552 34.281-1.4729 10.173-2.4209 20.375-3.0942 30.58-0.6851 9.1568 0.1514 18.313 1.3381 27.437 1.218 8.3021 3.6512 16.501 6.6064 24.625 2.7008 7.3421 6.6017 14.471 11.282 21.409 4.7343 6.6297 10.945 12.79 17.348 18.835 6.0243 5.3971 12.692 10.518 19.914 15.314 6.9344 4.268 15.91 6.4546 25.072 8.1974 9.6043 2.1225 19.665 2.3552 29.728 2.0093 12.394-1.0992 23.959-4.2759 35.321-7.3902 13.127-3.5635 26.001-7.4866 38.568-11.755 36.65-13.003 76.022-26.976-97.42 34.833-2.1189 0.755 4.204-1.5459 6.2815-2.344 6.8256-2.6224 13.376-5.4495 19.892-8.3561 14.382-6.4656 28.043-13.506 41.516-20.677 15.496-8.2901 30.02-17.235 44.559-26.157 16.323-10.001 32.479-20.107 48.423-30.342 16.542-10.431 32.199-21.374 47.889-32.294 16.379-11.612 32.674-23.273 48.646-35.102 15.697-11.662 30.202-23.912 44.539-36.222 13.294-11.421 26.042-23.08 38.491-34.86 10.191-9.8704 20.807-19.566 31.422-29.261 8.2224-7.5155 16.03-15.202 23.875-22.87 6.4074-6.2311 13.084-12.361 20.085-18.341 5.9941-4.9359 11.753-9.9801 17.536-15.011 4.7292-4.097 9.3076-8.2564 14.303-12.231 4.0717-3.1863 8.2235-6.3332 12.366-9.4834 3.1845-2.5106 6.6699-4.8785 9.6507-7.4855 25.756-23.924 112.43-63.822 123.46-31.28 0.7002 5.9805-2.4397 11.731-5.2181 17.369-3.6478 7.0145-8.3828 13.786-13.17 20.524-6.3135 8.6766-12.489 17.391-18.931 26.032-7.477 10.162-15.024 20.304-22.493 30.468-8.0352 10.777-15.465 21.721-22.736 32.704-7.2982 11.08-13.583 22.399-19.434 33.8-5.9367 11.674-10.753 23.547-15.341 35.447-4.5441 11.488-7.2711 23.184-9.1205 34.943-1.5071 11.031-1.2469 22.108 0.095 33.136 1.1914 9.3864 4.626 18.538 9.3093 27.467 4.26 8.0192 11.516 15.019 20.676 21.184 9.7167 5.9968 21.52 10.422 33.787 14.096 12.602 3.9459 26.24 5.8758 40.131 7.008 16.192 0.7461 32.361-0.3272 48.387-1.6723 18.685-1.6294 36.713-5.1723 54.413-9.1176 20.865-4.8768 40.54-11.458 59.974-18.184 47.88-17.324-30.207 10.945-87.556 31.24-3.6531 1.2928 7.1645-2.7341 10.716-4.1315 11.059-4.3516 21.801-8.9464 32.479-13.646 23.171-10.467 45.337-21.756 67.416-33.086 24.236-12.471 48.191-25.148 71.846-38.042 24.014-13.119 47.31-26.73 70.788-40.214 22.85-13.216 46.064-26.185 69.482-39.012 46.164-147.48 321.33-147.48 298.2-130.68 18.898-6.2633 38.369-11.897 58.362-16.675 16.687-4.3638 34.128-7.0026 52.11-8.0596 16.278-0.9445 32.262 0.9215 47.866 3.6114 15.504 2.9392 29.514 7.9112 42.89 13.482 12.914 5.4821 24.486 12.014 35.468 18.898 9.3039 5.8677 18.186 11.988 27.504 17.847 5.4305 2.9945 10.953 7.4071 18.862 7.3007 38.211-24.844-135.92 58.502-98.254 32.522 4.4799-3.7328 5.569-8.0361 5.8822-12.559 0.3751-5.434-1.4832-10.702-4.1821-15.83-3.2365-5.4582-9.2432-9.8699-15.681-13.981-8.5786-5.1178-18.522-9.1034-28.901-12.642-13.045-4.0193-26.878-6.7835-40.892-9.1411-15.587-2.6489-31.401-4.6303-47.341-6.2383-16.739-1.7375-33.7-2.4327-50.648-2.6952-79.088-0.048-165.69 14.474-231.87 36.52 219.29-79.24 38.986-22.218-18.007 43.506-8.879 10.471-15.828 21.472-21.852 32.678-5.7974 10.751-9.3109 21.859-11.975 33.05-2.7604 11.234-3.1747 22.591-2.9326 33.93 0.3555 11.012 1.7699 21.996 3.4765 32.954 1.4508 9.999 3.6984 19.935 6.9965 29.762 3.3765 9.5036 7.8753 18.815 13.21 27.959 5.3861 8.8778 11.895 17.474 19.213 25.796 6.8623 8.0274 15.774 15.232 25.385 22.047 10.31 7.2266 22.398 13.234 35.202 18.648 14.642 5.9336 30.758 10.246 46.823 14.445 16.161 4.2555 33.041 6.9197 50.33 8.609 19.11 1.6035 38.094-0.1431 56.763-2.6379 20.766-3.2367 39.974-9.0342 58.258-15.818-187.81 69.366-94.98 37.083-57.743 15.168 16.01-9.8829 29.785-21.012 43.12-32.286 12.917-10.914 24.86-22.246 35.878-33.93 10.062-10.611 18.421-21.77 26.258-33.065 7.3254-10.56 13.648-21.358 19.036-32.354 4.8661-10.146 8.2858-20.514 11.509-30.898 2.9416-9.1035 5.2546-18.267 6.7897-27.501 1.1213-8.2842 1.3997-16.602 1.7607-24.909 0.4815-7.0238 0.3549-14.048 0.066-21.072-0.2663-5.8442-0.581-11.688-0.8905-17.532-0.4229-4.7065-0.3771-9.4092-0.061-14.116 0.2934-3.5616 0.5357-7.1257 0.9342-10.683 0.3016-3.4793-1.2382-6.8068-3.0257-10.059-2.5282-4.4766-5.8332-8.7491-9.6593-12.848-4.1857-4.786-9.5396-9.0991-14.629-13.513-4.3009-3.5386-7.9366-7.5008-13.258-10.505 0.1311 0.075-2.0048-1.0192-2.5147-0.5654-0.5299 0.4714 0.3286 3.0865 0.7914 2.9251 107.02-37.325 123.71-64.367 107.65-38.97-0.5441 3.6478 2.6338 7.0063 5.3755 10.088 4.6895 4.8372 10.117 9.3531 15.695 13.803 5.9239 4.5605 12.518 8.7584 19.931 12.383 7.936 3.8223 16.75 6.7365 26.106 8.9513 9.6885 2.0583 19.993 1.7764 30.021 1.107 10.598-1.0639 20.441-3.467 30.004-6.404 42.191-14.01 107.3-38.143-82.127 29.712 45.248-16.331 90.133-33.061 135.96-48.766 42.149-14.694 111.09-39.669-77.853 28.05 9.4488-3.4361 18.83-6.9443 28.217-10.445 44.008-16.211 86.378-34.652 133.1-47.573 7.9067-2.276 14.663-1.2734 22.123 0.9908 8.2513 3.0592 12.706 8.0416 15.809 13.497 3.5252 7.7597 2.8441 15.876 2.2138 23.835-1.0355 10.124-2.8849 20.209-4.8591 30.277-2.4109 11.253-4.9646 22.495-7.703 33.719-2.7173 11.495-5.6596 22.969-8.7483 34.428-3.1028 11.168-6.7815 22.272-10.425 33.376-3.4845 10.515-7.3163 20.985-11.352 31.424-3.8709 9.5624-7.6777 19.135-11.495 28.706-3.719 9.1253-7.6583 18.213-11.888 27.252-4.1357 8.7246-8.0846 17.481-12.358 26.181-4.2991 8.5458-9.1566 16.977-14.08 25.389-4.6392 8.126-9.8518 16.117-15.111 24.094-4.3263 6.5381-8.6789 13.069-13.03 19.601-2.7753 3.4938-4.4232 7.3247-7.1436 10.826-117.09 32.175-127.42 55.831-109.41 20.906 4.4668-8.7 9.6067-17.256 14.664-25.828 6.081-10.59 12.212-21.168 18.527-31.706 7.3524-12.25 15.29-24.358 23.339-36.437 8.2556-12.424 16.835-24.762 25.743-37.011 9.2539-12.803 19.87-25.188 30.902-37.426 10.77-11.715 22.357-23.132 34.139-34.462 10.898-10.769 23.424-20.793 36.908-30.345 13.726-9.4845 29.239-17.879 44.99-26.027 14.234-7.2816 29.028-14.122 44.004-20.8 48.977-20.668 99.66-40.691 154.64-54.522 15.83-4.0365 32.294-6.9655 48.725-9.8835 15.335-2.6961 30.772-5.1514 46.333-7.2904 15.819-1.9997 31.836-3.1381 47.875-4.1797 15.671-0.665 31.359-1.1749 47.045-1.6731 14.599-0.4038 29.139-0.029 43.694 0.6423 13.967 0.9208 27.813 2.4222 41.589 4.1033 12.261 1.5815 24.227 3.7061 36.051 6.2438 10.435 2.4222 20.28 5.6561 29.683 9.3405 9.2108 3.6611 16.808 8.5464 23.861 13.678 6.6001 5.0953 11.966 10.685 16.5 16.569 4.976 6.4193 7.4351 13.379 9.0027 20.39 1.4807 7.654 1.3311 15.37 0.7266 23.054-0.7234 7.8371-3.1226 15.543-5.8211 23.194-2.9789 8.4193-7.7466 16.515-12.869 24.506-5.3973 8.259-11.558 16.313-18.041 24.261-6.5858 7.9364-13.353 15.819-20.392 23.604-7.5723 8.0901-15.566 16.026-23.623 23.933-7.9416 7.7156-16.073 15.355-24.096 23.038-7.7168 7.4998-15.196 15.093-22.565 22.726-7.1827 7.4397-14.059 14.987-20.45 22.7-6.3969 7.7849-11.763 15.866-16.788 24.022-4.8973 7.709-8.6405 15.643-11.114 23.78-2.0101 7.6883-2.1355 15.486-1.8194 23.25 0.1634 7.2261 2.0727 14.24 6.5136 20.914 6.4098 7.775 16.6 13.845 26.948 19.598 12.737 6.9579 26.449 13.216 40.502 19.105 14.622 6.1102 30.351 11.06 46.224 15.77 15.806 4.6835 32.04 8.7267 48.649 12.16 17.027 3.638 34.707 5.7009 52.546 6.9928l105.26 3.4828c-63.731 25.717-34.758 15.922-92.639 32.67-18.733 4.7306-38.016 8.4853-58.251 9.7227-19.518 1.0972-39.197 1.5038-58.681-0.1486-18.382-1.7731-36.561-4.2862-54.08-8.2389-16.862-3.7527-33.366-8.084-49.466-12.966-16.275-5.0036-32.348-10.3-47.291-16.742-14.376-6.2148-28.49-12.709-41.523-19.99-11.555-6.6226-22.748-13.627-30.019-22.406-5.3672-7.4828-8.3767-15.316-8.7928-23.536-0.5253-8.2132-0.682-16.44 0.7724-24.627 1.8545-8.6183 5.0825-17.086 10.122-25.217 4.8513-8.3969 10.027-16.728 16.204-24.789 6.1416-7.9309 12.822-15.678 20.047-23.25 7.3475-7.6954 14.786-15.359 22.453-22.934 7.7842-7.7973 16.107-15.379 24.145-23.076 8.0822-7.8039 15.988-15.674 23.79-23.587 7.2546-7.6137 13.873-15.439 20.673-23.211 6.3787-7.8202 12.919-15.59 18.435-23.668 5.1639-7.6333 10.321-15.295 13.635-23.337 2.9128-7.2501 5.4364-14.563 6.7038-22.004 0.9664-7.2256 1.3401-14.503 0.2835-21.735-0.9517-6.2045-2.8041-12.398-7.1252-18.074-3.9679-5.2451-8.7273-10.221-14.706-14.695-6.3768-4.4533-13.284-8.6101-21.704-11.57-8.937-3.1638-18.214-5.9717-28.047-7.9053-11.448-2.2698-23.143-4.0026-34.94-5.422-13.432-1.5185-26.959-2.8359-40.601-3.3316-14.248-0.4662-28.517-0.3979-42.765 0.075-15.522 0.5119-31.067 0.9473-46.52 2.0204-15.777 1.1723-31.519 2.6075-46.98 4.926-15.37 2.3322-30.676 4.8327-45.843 7.6354-16.168 3.0443-32.277 6.2558-47.661 10.641-7.0763 2.0744-8.6255 2.4591-15.53 4.7617-2.5013 0.8342-9.8888 3.467-7.4344 2.5815 179.81-64.852 124.77-45.823 87.5-31.177-15.204 6.4781-30.116 13.225-44.565 20.34-15.911 7.8202-31.45 15.968-45.768 24.911-13.745 9.1481-26.836 18.658-37.692 29.236-12.047 11.145-23.523 22.528-34.663 34.03-11.12 12.027-21.962 24.161-31.266 36.78-9.0776 12.13-17.622 24.408-25.947 36.744-7.9819 11.987-16.021 23.961-23.304 36.121-6.3194 10.482-12.549 20.987-18.339 31.586-4.9393 8.4461-10.07 16.853-14.439 25.422-11.164 21.479-73.234 138.25-123.38 47.566 1.024-4.1897 4.5473-8.0617 7.0488-11.951 4.4256-6.549 8.8524-13.097 13.27-19.648 5.3127-7.8912 10.701-15.765 15.461-23.794 4.8288-8.3599 9.95-16.658 14.287-25.124 4.6342-8.5954 8.4594-17.342 12.533-26.043 4.3506-8.9465 8.4292-17.939 12.1-27.003 4.1221-9.5205 7.5866-19.149 11.679-28.676 4.2621-10.34 8.0292-20.757 11.655-31.189 3.8047-11.016 7.2708-22.082 10.695-33.145 3.2533-11.395 6.081-22.836 8.8359-34.281 2.7432-11.143 5.287-22.303 7.7699-33.471 1.924-9.8998 3.8318-19.808 4.9662-29.757 0.768-6.9906 1.6624-14.123-0.4389-21.055-1.4806-3.2269-3.5968-6.3566-9.5569-6.8799-5.9447-0.1241-10.964 2.2553-16.054 3.8966-53.769 19.746 148.79-53.912 87.197-31.127-9.46 3.5215-18.92 7.0435-28.381 10.563-47.219 16.951-94.251 34.054-141.76 50.666-47.143 16.913 158.15-57.095 83.87-29.942-44.254 15.855-90.344 35.109-138.6 48.298-10.556 2.3681-21.509 4.0748-32.802 4.1413-11.493-0.098-22.842-0.9269-33.353-4.0443-10.012-2.9533-19.598-6.4161-28.138-10.841-7.8343-4.1943-15.03-8.8172-21.412-13.88-5.9494-4.7809-11.751-9.63-16.832-14.791-3.9645-4.3904-7.654-8.8984-8.9491-13.93-4.9992-30.742 86.357-65.441 119.22-41.069 5.1352 3.6327 9.5244 7.6224 13.989 11.575 5.3459 4.6118 10.775 9.1978 15.239 14.171 4.2583 4.5203 8.0585 9.1907 11.003 14.106 2.3641 4.0423 4.6157 8.0901 5.2143 12.411 0.3169 3.6973-0.5389 7.3863-0.7586 11.082-0.4405 4.5266-1.0359 9.0539-0.5576 13.59 0.2483 5.872 0.497 11.744 0.7397 17.617 0.2912 7.1688 0.6834 14.341 0.073 21.508-0.4032 8.4771-0.7623 16.957-1.5174 25.426-1.3308 9.4736-3.2563 18.899-6.43 28.212-3.189 10.606-6.4403 21.214-11.13 31.612-5.0058 11.318-11.18 22.405-18.492 33.233-7.7243 11.568-15.794 23.066-25.769 33.97-10.799 11.983-22.515 23.624-35.481 34.759-13.307 11.496-26.732 22.982-42.258 33.384-44.122 29.188-102.5 45.612-159.16 64.836-19.265 6.2072-39.349 11.466-60.857 13.816-19.808 1.94-39.825 2.8383-59.673 0.3998-17.863-2.2507-35.289-5.4839-51.976-10.092-16.679-4.5376-33.314-9.2887-48.324-15.763-13.441-5.9509-26.171-12.494-37.015-20.27-10.088-7.309-19.489-14.988-26.789-23.515-7.5961-8.6749-14.37-17.621-20.072-26.844-5.6386-9.4605-10.416-19.091-14.072-28.926-3.6012-10.091-6.0911-20.304-7.5495-30.603-1.7947-11.151-3.3221-22.326-3.8487-33.532-0.4978-11.688-0.4619-23.414 2.0319-35.027 2.3342-11.597 5.5093-23.133 11.04-34.328 5.816-11.559 12.252-23.005 21.083-33.834 8.7447-11.077 18.519-21.835 29.273-32.21 10.253-9.2785 21.309-18.268 34.512-26.027 12.139-7.3907 25.265-14.081 39.301-20.051 48.773-20.547 100.29-38.636 153.07-54.904 15.715-4.4755 31.748-8.5283 48.358-11.559 17.527-3.2222 35.148-6.3125 53.119-8.44 18.611-2.1 37.329-3.8515 56.197-4.7813 18.641-0.9176 37.337-1.5756 56.042-1.0509 17.328 0.5775 34.634 1.5136 51.709 3.5058 16.229 1.8372 32.329 4.091 48.19 6.9219 14.728 2.764 29.291 5.9859 42.766 10.661 11.198 4.1283 21.959 8.7317 31.123 14.528 7.5209 5.0415 14.424 10.444 18.539 16.901 3.3795 5.8829 5.9838 11.933 6.299 18.217 0.1549 5.4582 0.4711 11.014-2.9268 16.173-17.123 28.631-79.043 56.321-125.83 45.161-8.4329-2.7193-15.456-6.6172-21.954-10.898-9.0775-5.9264-17.918-11.993-27.16-17.823-10.495-6.4352-21.561-12.528-33.976-17.521-12.627-4.9169-25.948-9.1427-40.573-11.252-173.61-22.24-305.91 50.233-374.26 156.26-23.489 13.004-47.4 25.706-71.558 38.23-21.953 11.407-44.01 22.747-66.801 33.508-54.326 24.869-113.36 45.211-172.8 65.098-19.909 6.5594-40.097 12.904-61.595 17.24-18.348 3.6121-36.978 6.7344-56.207 7.8819-16.855 1.0421-33.917 1.7461-50.721-0.041-14.76-1.8311-29.116-4.5595-42.408-9.0435-13.22-4.5002-25.965-9.6354-36.299-16.543-9.9923-7.1344-18.243-15.028-23.27-24.02-5.1193-9.4845-8.9959-19.203-10.516-29.188-1.694-11.437-2.0801-22.928-0.9225-34.398 1.5252-12.1 3.9477-24.146 8.3603-35.986 4.5239-12.051 9.2215-24.083 14.923-35.943 5.7142-11.591 11.853-23.101 18.973-34.394 7.1591-11.073 14.527-22.1 22.459-32.969 7.3734-10.183 15.022-20.286 22.294-30.496 6.4281-8.5551 12.593-17.179 18.717-25.819 4.6903-6.5217 9.3451-13.056 13.483-19.722 2.6838-4.7639 5.2115-9.5766 7.0825-14.491 13.145-26.309 153.69-51.463 109.89-36.604-3.8546 2.0785-6.5722 4.8563-10 7.1939-4.18 3.1501-8.3593 6.3004-12.548 9.4457-5.1358 3.8497-10.272 7.6818-14.724 11.858-5.8613 5.0693-11.723 10.139-17.581 15.209-7.2117 5.8049-14.043 11.772-20.663 17.844-7.9793 7.7455-15.941 15.499-24.045 23.195-10.728 9.6911-21.566 19.34-31.87 29.208-12.504 11.896-25.207 23.71-38.531 35.261-14.367 12.404-28.693 24.842-44.195 36.714-15.826 11.958-32.268 23.588-48.489 35.338-15.592 10.995-31.12 22.038-47.548 32.559-15.887 10.29-31.992 20.444-48.227 30.522-14.593 8.8751-28.723 18.054-43.992 26.493-13.21 7.3978-26.78 14.558-40.944 21.246-45.635 21.675-96.507 38.606-147.57 54.98-12.89 3.9851-25.863 7.8813-39.285 11.14-12.419 2.8728-25.175 5.4625-38.62 5.0349-11.078-0.4178-21.935-1.6225-32.268-4.2404-10.595-2.7207-20.62-6.0612-28.418-11.425-7.5308-5.1978-14.576-10.676-20.892-16.468-6.753-6.4651-13.318-13.04-18.429-20.079-5.0756-7.3422-9.2985-14.892-12.331-22.665-3.1159-8.4624-5.8049-16.982-7.2978-25.623-1.4261-9.4092-2.4153-18.877-1.9278-28.33 0.4435-10.381 1.685-20.744 2.8512-31.102 1.9098-11.576 3.7021-23.167 6.4745-34.679 3.0548-12.732 6.2749-25.45 9.787-38.137 3.7478-13.284 7.6766-26.55 12.334-39.725 4.7367-13.14 9.7631-26.241 15.647-39.203 5.9806-13.258 11.734-26.56 18.348-39.704 6.9978-13.857 14.18-27.678 21.411-41.489 7.8203-14.616 15.334-29.296 23.485-43.843 8.6459-15.255 17.777-30.404 26.935-45.544 9.5121-15.392 19.046-30.78 28.313-46.231 9.2092-15.015 18.562-29.994 28.231-44.898 9.8447-15.177 19.758-30.338 29.186-45.616 9.2881-15.365 18.804-30.679 27.424-46.197 7.919-13.947 16.017-27.856 24.472-41.681 6.0997-9.9854 12.13-19.996 19.105-29.763 21.427-28.09 99.765-74.948 127.18-42.427 0.8861 5.18-1.5461 10.248-2.5405 15.364-2.5952 7.9625-5.25 15.918-7.6182 23.908-3.9765 13.494-8.6959 26.898-12.805 40.376-5.7186 18.214-11.436 36.43-17.161 54.642-201.64 156.31-243.98 325.65-268.78 497.65-11.698 12.812-24.115 25.372-38.273 37.207-12.837 11.065-26.266 21.952-42.004 31.508-13.948 8.0601-28.478 15.715-44.45 22.21-49.19 20.551-100.45 40.429-156.05 53.529-14.833 2.8999-29.978 5.2386-45.506 6.1238-13.398 0.566-26.903 0.3668-39.87-2.0607-11.274-2.3521-21.766-5.6878-31.465-9.9871-10.252-4.6339-19.985-9.7183-27.898-15.92-8.0771-6.7485-14.873-14.028-18.186-22.261-3.5683-8.7071-5.7951-17.557-6.579-26.538-0.8325-9.7472-1.1913-19.51 0.1865-29.251 1.201-10.343 2.9423-20.647 5.0229-30.937 2.1084-11.161 4.384-22.309 6.605-33.461 1.8872-10.863 3.8861-21.718 6.2141-32.549 1.9405-9.1083 3.338-18.262 5.7923-27.327 1.7014-6.3866 2.7155-12.845 4.963-19.174 7.8189-29.996 17.996-8.2324 117.91-39.754 0.9363-0.2953-5.6544-0.7118-4.0132 0.9381-4.3619 5.1355-7.6351 10.581-10.929 16.012-4.8198 7.992-9.6393 15.984-14.461 23.976-6.0558 10.034-12.048 20.084-18.332 30.063-7.5125 11.912-15.143 23.796-23.228 35.564-8.7842 12.733-18.151 25.329-29.083 37.416-10.913 12.15-21.73 24.346-34.059 35.976-11.834 11.078-23.962 22.11-39.456 31.386-14.275 8.7611-29.696 16.742-46.698 23.413-50.661 18.238-102.39 41.932-160.04 53.127-17.161 2.8477-34.582 5.0622-52.345 5.8022-17.571 0.7749-35.244 0.9964-52.722-0.6554-15.817-1.6296-31.536-3.9209-45.889-8.5158-13.266-4.5003-25.646-9.8562-36.84-16.189-12.299-6.9147-23.943-14.252-34.735-22.084-11.323-8.3413-22.283-16.925-30.816-26.502-8.1699-9.291-14.993-19.03-19.421-29.278-4.3141-10.307-7.8077-20.758-8.8194-31.417-0.85868-11.146-0.11064-22.275 3.3984-33.254 3.2907-11.421 7.8863-22.675 14.182-33.611 6.8387-11.021 14.486-21.822 23.675-32.179 9.5252-10.932 19.544-21.703 30.752-32.011 11.877-10.876 24.111-21.63 37.446-31.839 13.29-10.201 27.299-20.046 43.199-28.729 47.312-24.445 102.98-42.298 158.95-57.962 18.178-4.1502 36.774-7.5046 55.899-9.5253 19.222-2.0285 38.611-3.5504 58.148-3.5377 18.604 0.101 37.261 0.707 55.547 2.9856 16.926 2.3252 33.589 5.3621 49.288 10.005 15.322 4.4841 30.165 9.5461 44.468 15.188 13.728 5.443 27.362 11 40.121 17.303 11.083 5.5679 21.849 11.406 31.1 18.173 7.4425 5.4317 14.41 11.136 19.715 17.489 4.0768 4.8448 8.1631 9.7287 10.69 14.988 12.862 29.347-81.823 68.232-113.73 44.607-4.8004-2.9413-9.0933-6.168-13.428-9.3716-7.432-5.431-15.003-10.785-22.635-16.108-9.6305-6.7599-19.212-13.553-29.247-20.084-11.512-7.2135-23.334-14.28-36.599-20.262-13.652-6.0099-28.045-11.326-43.242-15.706-14.903-4.173-30.265-7.7733-46.47-9.4403-14.802-1.3783-29.766-1.9617-44.691-0.8853-15.227 1.1934-30.329 3.0567-44.869 6.1696-15.851 3.4211-31.397 7.4015-46.112 12.441-41.201 14.321-19.329 6.7502 93.364-33.681 2.7197-0.9757-5.3995 1.9939-8.0907 2.9995-4.6328 1.7314-11.848 4.4202-16.317 6.3103-2.6616 1.1254-5.2162 2.3455-7.8243 3.5182-15.154 7.1628-29.421 14.984-41.379 24.246-12.656 9.933-24.002 20.425-35.088 31.052-11.842 11.446-23.96 22.785-35.2 34.468-12.129 12.111-23.63 24.459-35.36 36.72-11.973 12.322-24.193 24.558-37.433 36.377-13.39 11.827-27.371 23.409-41.945 34.684-14.233 10.969-28.778 21.831-45.054 31.669-16.062 9.5455-32.939 18.56-50.416 27.095-18.269 8.5545-36.964 16.753-56.651 24.017-57.28 20.586-113.78 42.336-173.27 60.481-21.969 6.4858-44.356 12.47-67.752 16.711-21.202 3.8741-42.573 7.3765-64.207 10.202-19.884 2.5297-39.889 4.7682-60.148 5.7608-17.409 0.8405-34.844 1.4185-52.293 1.8472-14.39 0.2574-28.783 0.4631-43.175 0.6398-11.332 0.019-22.725-0.1269-33.913-1.3563-8.7226-1.1385-17.283-2.6061-25.519-4.7552-8.0451-2.0024-16.057-4.0638-23.843-6.4351-9.3443-2.9384-18.597-5.9892-27.676-9.2343-10.669-3.8205-21.252-7.733-31.807-11.674-12.514-4.7745-24.923-9.6643-36.911-14.938-12.704-5.7085-25.306-11.539-36.972-18.06-11.559-6.4628-22.855-13.116-33.225-20.326-10.049-7.104-19.606-14.507-27.556-22.591-7.9422-8.3549-14.741-17.09-19.559-26.343-4.9883-9.6181-9.0607-19.418-10.959-29.477-1.8818-10.165-3.336-20.402-2.2703-30.641 1.2653-10.279 3.2524-20.56 7.9108-30.488 4.3495-9.7369 9.9325-19.23 17.096-28.316 7.0801-8.8157 14.699-17.45 23.128-25.801 8.7782-8.6892 17.703-17.343 27.766-25.488 10.329-8.1991 21.038-16.253 33.091-23.508 11.674-7.2158 23.904-14.055 37.235-20.088 47.252-21.356 99.168-38.347 150.51-55.618 14.348-4.5056 28.963-8.6973 44.23-11.878 14.525-2.9965 29.263-5.6027 44.402-7.1149 14.981-1.5776 30.1-2.7103 45.311-2.8562 15.484-0.1211 30.945 0.3636 46.253 1.9128 14.704 1.4501 29.347 3.2186 43.445 6.2678 13.34 2.8932 26.413 6.2611 38.614 10.728 12.149 4.2715 24.282 8.5611 36.246 13.03 12.102 4.4498 24.029 9.0789 35.594 14.053 9.4006 4.1573 18.7 8.4199 27.143 13.324 5.7016 3.3184 11.385 6.7616 15.091 11.092 20.121 27.892-67.884 60.012-110.98 47.942-3.0308-0.4869-5.9331-1.2687-9.1205-1.4101-4.7396-0.6004-9.5182-1.2323-13.821-2.6659-7.8576-2.5335-15.217-5.595-22.525-8.6891-11.661-4.9491-23.283-9.9369-35.164-14.682-13.311-5.0987-27.021-10.058-42.343-12.413-17.335-1.4652-34.922-1.1666-52.381-1.502-19.905-0.097-39.826-0.1122-59.705 0.6276-21.865 1.0174-43.676 2.619-65.112 5.5558-24.084 3.2903-48.005 7.0849-71.197 12.346-25.031 5.7013-49.513 12.239-72.875 20.259-45.129 15.301-11.537 3.9908 84.725-30.683 3.981-1.4341-8.0278 2.7973-12.005 4.2362-8.7678 3.1722-15.118 5.6184-23.696 8.9911-3.9577 1.5562-7.8858 3.1411-11.828 4.7116-23.725 9.6208-47.074 19.608-69.479 30.391-21.643 10.491-42.34 21.713-62.277 33.435-21.217 12.614-42.089 25.449-62.64 38.48-21.234 13.428-42.126 27.063-63.39 40.474-19.951 12.816-40.187 25.468-61.42 37.471-18.844 10.505-38.248 20.622-59.105 29.575-54.518 23.224-112.5 43.18-170.96 62.323-21.047 6.2726-42.64 12.09-65.739 14.736-16.86 1.4567-33.791 1.7563-50.087-1.8559-13.089-3.141-25.44-7.2615-36.225-12.902-10.207-5.3317-19.66-11.189-27.845-17.748-7.951-6.4792-15.435-13.185-21.39-20.465-5.8376-7.2375-10.995-14.679-15.009-22.388-4.3354-8.1963-7.712-16.545-9.6113-25.104-1.86-8.9018-2.4325-17.862-1.7417-26.834 0.54125-10.267 1.4549-20.55 4.411-30.678 2.913-11.224 6.5135-22.364 10.609-33.447 4.2489-11.504 8.6786-22.989 13.976-34.327 5.3747-11.401 11.19-22.713 17.031-34.025 5.3815-10.154 10.74-20.311 16.15-30.459 4.204-7.407 8.3571-14.827 12.77-22.186 1.1764-1.9652 4.0396-9.2593 7.3153-4.3108-23.361 23.158 153.67-56.818 97.271-33.354-7.365 4.8144-13.432 10.253-19.596 15.664-8.439 7.3067-16.565 14.745-24.649 22.205-10.268 9.3826-20.615 18.728-31.263 27.946-13.377 11.854-26.402 23.866-39.151 35.984-15.289 14.565-30.866 29.012-45.942 43.663-15.868 14.634-32.215 29.057-49.674 42.982-18.221 15.01-36.749 29.881-56.407 44.182-20.421 15.167-41.337 30.087-63.952 44.021-19.136 11.565-38.525 23.07-60.379 32.673-52.195 18.993-106.18 43.7-165.74 55.585-17.968 2.9797-36.26 5.3791-54.95 5.4567-15.951-0.1847-31.765-1.3508-46.828-4.82-13.758-3.1805-27.194-6.9284-39.229-12.223-11.395-5.2161-21.971-11.033-31.042-17.815-9.5253-7.129-18.481-14.615-24.681-23.095-6.3914-9.098-10.988-18.557-12.332-28.499-1.707-10.748-2.7516-21.554-2.2912-32.358 0.8261-11.524 2.4533-23.029 5.4657-34.419 2.9096-11.558 6.102-23.087 9.0835-34.638 2.958-11.308 6.1452-22.592 9.9239-33.807 3.729-10.726 7.669-21.424 12.371-32.004 3.8112-8.4929 7.4171-17.021 11.498-25.466 17.476-34.57 7.396-16.247 121.57-47.331-7.4382 1.0755-11.224 7.4261-16.121 10.486-8.8325 7.6812-17.116 15.6-25.748 23.368-10.527 9.5908-21.043 19.189-32.508 28.364-13.368 10.743-26.68 21.514-40.496 32.037-15.038 11.291-30.168 22.548-46.711 33.015-18.381 12.002-37.171 23.759-55.752 35.641-18.77 11.876-37.799 23.6-57.356 34.977-18.776 10.884-38.263 21.3-58.949 30.774-52.898 24.421-111.17 44.012-169.35 63.124-19.49 5.8393-39.4 11.159-60.193 14.966-18.307 3.1941-36.956 5.6496-56.071 5.6998-16.19-0.01-32.35-0.6502-48.412-1.9325-16.984-1.3887-34.01-2.9534-50.378-6.2046-16.499-3.4652-32.652-7.5465-47.394-13.391-14.816-5.8546-29.009-12.285-41.332-20.11-12.144-7.8038-23.409-16.099-32.687-25.328-9.3215-9.3438-17.602-19.075-23.614-29.44-6.2404-10.608-11.639-21.383-15.802-32.384-4.4021-11.856-8.2884-23.795-11.045-35.846-2.6249-12.492-4.956-25.013-5.672-37.615-0.8402-12.637-0.573-25.286 1.3039-37.889 1.8002-12.289 4.8611-24.472 8.4264-36.611 3.6477-12.502 7.6635-24.956 12.903-37.246 5.3135-12.978 10.904-25.914 17.128-38.737 6.3963-12.972 12.559-25.992 19.849-38.787 7.5238-13.532 14.922-27.094 23.212-40.456 8.7003-14.087 17.322-28.201 27.129-42.01 9.4868-13.615 19.314-27.141 29.225-40.639 10.03-13.816 20.44-27.527 31.234-41.119 11.304-14.022 23.054-27.902 34.406-41.91 12.284-14.8 24.758-29.539 37.036-44.341 13.003-15.353 25.89-30.744 38.67-46.17 12.667-14.769 25.358-29.531 38.356-44.189 11.992-13.392 24.466-26.627 37.607-39.598 9.937-9.9811 20.127-19.94 32.659-28.766 34.75-23.08 58.295-24.226 123.42-47.092 2.278-0.7998 7.1817-0.6216 9.4927-0.011 1.7265 0.4564 3.12 1.295 4.68 1.9425 8.0736 5.8589 7.5196 11.884 3.883 19.065-5.0793 10.078-11.781 19.796-17.948 29.629-8.164 12.689-16.826 25.245-25.694 37.752-10.642 14.71-21.811 29.272-34.157 43.466-14.577 17.314-29.11 34.642-43.332 52.07-15.247 18.19-30.58 36.353-45.696 54.588-13.944 16.79-28.158 33.493-41.758 50.392-12.333 15.558-23.82 31.371-34.302 47.446-12.198 18.304-23.556 36.813-34.733 55.367-10.671 18.202-20.734 36.528-30.324 54.959-8.0017 15.761-15.732 31.573-23.716 47.337-8.7695 16.759-17.593 33.507-26.4 50.258-10.003 18.397-20.39 36.723-32.438 54.648-12.418 18.294-25.204 36.52-39.78 54.198-14.462 17.091-29.591 33.979-46.69 50.121-16.354 15.536-33.494 30.786-53.533 44.607-18.154 12.793-37.046 25.19-57.635 36.498-18.074 9.6644-36.243 19.282-55.82 27.774-53.876 22.681-110.08 43.432-168.71 61.009-18.996 5.0204-38.565 9.1896-59.323 10.148-17.445 0.665-34.926 0.3297-52.053-2.0605-16.137-2.2772-31.928-5.3765-46.591-10.232-14.221-4.8079-27.864-10.299-39.087-17.641-10.473-7.1731-19.728-14.946-26.941-23.561-7.1616-8.5905-13.234-17.5-17.171-26.886-3.9905-9.6611-6.9783-19.449-8.4837-29.39-1.3829-10.16-1.9294-20.391-0.5366-30.566 1.7066-10.532 3.813-21.055 7.3641-31.417 3.7092-10.681 8.1546-21.305 14.07-31.601 6.2667-10.431 13.43-20.672 22.547-30.28 9.0493-9.7009 18.679-19.218 30.112-27.923 11.38-8.6171 23.365-16.97 36.82-24.372 45.061-24.17 98.957-40.771 151.61-57.859 15.24-4.4946 30.96-8.2748 47.357-10.826 17.334-2.7566 34.802-5.2267 52.629-6.3974 18.053-1.0685 36.208-1.4644 54.293-0.3412 17.319 1.021 34.574 2.493 51.424 5.2592 17.48 2.7902 34.613 6.2808 51.172 10.771 17.133 4.4679 34.3 8.9388 50.831 14.224 15.073 5.0207 29.773 10.504 42.948 17.326 10.16 5.4282 20.025 11.085 28.99 17.283 6.9299 4.926 13.615 10.08 17.737 16.164 16.934 29.882-79.419 71.214-112.72 46.348-6.3857-3.7776-12.277-7.8638-18.551-11.712-8.9089-5.5514-17.952-11.028-27.627-16.07-10.933-5.498-22.283-10.673-34.061-15.455-13.121-5.2904-26.48-10.377-40.41-14.811-16.322-4.956-33.148-9.261-50.627-12.399-19.502-3.283-39.372-5.8218-59.593-6.5528-23.693-0.5985-47.383 0.083-70.693 3.0013-26.74 3.2136-53.208 7.2523-79.089 12.56-28.525 5.8807-56.736 12.346-84.318 19.778-47.223 12.946-170.84 53.682 23.384-12.644-25.575 9.087-50.817 18.546-74.977 29.038-26.633 11.506-53.022 23.228-79.196 35.134-25.372 11.656-50.338 23.649-75.493 35.485-24.78 11.404-49.5 22.86-75.077 33.575-26.086 11.095-52.311 22.071-79.304 32.306-63.086 23.836-127.22 46.598-191.79 68.843-28.425 9.412-57.251 18.391-86.991 26.109-27.775 6.978-56.008 13.283-85.27 17.439-28.73 4.072-57.796 7.2528-87.24 8.4788-29.263 1.1478-58.603 1.6954-87.902 0.6052-29.593-1.1125-59.181-2.6461-88.403-5.8655-27.933-3.2936-55.564-7.5079-82.441-13.326-25.788-5.4893-51.43-11.318-76.072-18.599-23.058-6.9077-45.739-14.334-66.802-23.422-19.523-8.3409-38.597-17.146-55.765-27.326-15.695-9.763-30.642-20.039-42.313-31.844-10.585-11.257-19.786-22.97-25.969-35.468-5.4424-11.505-9.548-23.248-10.405-35.27-0.7392-11.663 0.4161-23.314 4.7243-34.715 4.2013-12.286 9.7516-24.401 18.395-35.802 8.3116-11.344 17.702-22.388 29.437-32.536 11.238-9.3901 23.912-18.088 38.569-25.487 47.076-22.6 100.34-39.919 153.63-56.234 15.68-4.4086 31.701-8.3157 48.197-11.397 16.218-3.1461 32.605-5.932 49.323-7.8698 15.739-1.8253 31.621-3.1132 47.633-3.5351 14.462-0.3385 28.925-0.5432 43.397-0.398 11.118 0.024 22.236 0.062 33.354 0.1072 7.8497 0.032 15.754 0.2216 23.567-0.3222 2.9379-0.481 12.192-3.2699 7.9492-1.7316-90.984 32.989-148.76 35.322-103.51 39.186 5.2118-0.3106-23.064 7.5546-24.355 6.1311-5.543-5.4128 11.347-22.916 4.7776-27.851-8.8755-6.6603-17.754-13.318-26.591-19.998-11.028-8.3736-21.903-16.824-32.127-25.587-11.614-10.135-22.952-20.427-31.302-31.787-8.5619-12.018-15.665-24.402-19.402-37.382-3.3882-12.465-5.4443-25.061-5.4751-37.716 0.051-12.359 0.09-24.737 2.0013-37.053 1.7959-11.875 4.5993-23.759 10.984-35.062 6.3821-11.12 14.413-21.773 24.55-31.786 10.338-10.503 21.181-20.88 35.467-29.526 44.241-26.557 102.01-42.164 155.63-60.284 18.58-5.7189 37.324-11.322 57.12-15.26 20.223-3.8037 40.882-6.8058 62.189-6.2329 19.883 0.6265 39.567 2.3467 58.539 6.2575 18.596 3.8029 36.86 8.2345 54.166 13.962 17.458 5.8322 34.582 12.064 50.744 19.213 16.016 7.2456 31.717 14.811 45.577 23.644 12.678 8.1299 24.746 16.674 33.292 26.758 6.8951 8.2618 12.424 16.876 15.473 26.023 2.4528 7.1562 4.4871 14.404 4.2096 21.752 0.041 5.3413-0.6365 10.67-1.2179 15.998-0.4846 3.6262-0.1447 7.2664-0.1852 10.902l-114.96 36.362z"/>
  <path d="m2065.9 2423c7.7735-4.2219 21.76-7.5369 36.195-10.642 42.496-31.627-80.969-83.819-133.91-85.575-24.999 0.2216-48.405 1.0023-72.644 1.4934-27.747 0.6505-55.616 1.2668-82.38 2.2398-31.539 1.3916-63.094 2.8068-90.791 5.28-28.517 2.435-55.868 5.1552-79.96 8.6447-25.354 3.5049-50.197 7.1496-69.994 11.792-15.092 3.7095-29.895 7.5127-38.077 12.354l531.58 54.413z" stroke-width="1.4945"/>
  <path stroke-width=".74598" d="m-13915 2466.1c18.815-5.4765 39.259-10.322 60.619-14.704 145.53-21.095 285.96-62.598 448.72-77.671 49.131-4.4395 99.947-6.5137 150.65-7.9499 58.241-1.6915 116.8-1.8148 175.22-1.357 60.006 0.3214 119.8 1.8854 179.2 4.6157 58.066 2.7975 114.8 7.5319 170.93 12.995 62.235 6.7145 123.31 14.483 184.26 22.315 70.462 9.1662 140.5 18.673 210.7 28.041 77.346 10.324 153.89 21.253 229.8 32.626 75.323 10.976 149.76 22.55 223.43 34.639 68.98 11.554 137.63 23.314 205.37 35.615 63.725 11.333 126.74 23.083 188.19 35.655 63.677 13.068 124.72 27.39 185.45 41.828 64.873 15.474 128.49 31.489 191.85 47.6 62.667 16.006 124.55 32.327 186.74 48.52 63.219 16.294 125.46 32.976 187.98 49.548 63.905 16.74 127.24 33.691 189.91 50.914 62.019 17.401 125.07 34.413 187.51 51.65 63.705 17.65 128.39 34.92 193.47 52.041 61.162 16.329 122.41 32.617 184.76 48.47 58.978 15.166 119.83 29.549 180.8 43.868 61.565 14.116 123.29 28.172 186.34 41.59 65.521 13.823 134.34 25.84 203.63 37.533 74.608 12.683 151.14 24.115 227.28 35.796 79.53 12.156 160.86 22.987 243.42 32.792 92.42 10.573 186.9 19.15 281.51 27.404 100.46 9.0895 201.94 16.894 303.79 24.162 104.15 7.0645 208.67 13.558 313.23 19.952 99.656 6.0952 199.68 11.523 299.84 16.668 95.743 4.8795 191.78 9.1072 287.91 13.108 91.676 3.7874 183.52 7.1158 275.43 10.283 87.012 2.9973 174.15 5.607 261.31 8.0684 82.974 2.2908 166.02 4.307 249.06 6.3121 73.894 2.0324 148 2.9474 222.09 3.9081 68.376 0.5505 136.74 0.653 205.12 0.2692 61.507-0.526 123.06-0.5741 184.53-1.4334 60.667-0.6064 121.18-2.003 181.73-3.3334 60.322-1.2415 120.45-3.2816 180.49-5.5034 58.412-2.2064 116.63-4.9267 174.97-7.314 55.301-2.058 110.41-4.5649 165.55-7.0187 53.966-2.3075 107.65-5.2453 161.25-8.2807 53.283-2.7884 106.24-6.1683 159.39-9.1921 52.327-3.3737 104.78-6.5066 156.98-10.08 49.453-3.1273 98.591-6.717 147.88-10.102 48.278-3.4748 96.126-7.4902 144.15-11.301 44.919-3.7163 89.77-7.5608 134.39-11.642 46.033-4.155 91.968-8.4437 137.47-13.17 44.261-4.4792 88.013-9.439 131.9-14.284 40.582-4.4016 80.988-9.0188 120.53-14.326 38.36-4.9643 75.247-10.993 112.85-16.504 35.195-5.5608 69.44-11.698 103.99-17.65 5.6325-0.971 11.296-1.9238 16.898-2.9131 0.8249-0.1458 32.273-5.8407 33.231-6.014 5.3582-0.9706 21.393-3.9039 16.072-2.9126-352.21 65.605-434.76 81.354-311.84 57.939 29.76-5.4612 58.115-11.663 86.598-17.779 25.714-5.7361 50.457-11.901 75.686-17.851 22.196-5.4551 44.251-10.968 65.391-16.846 18.529-4.9478 35.778-10.323 52.39-15.926 15.33-5.6299 29.534-11.564 44.425-17.314 14.625-5.6034 26.533-11.835 37.764-18.177 11.434-6.6327 20.414-13.657 29.293-20.672 8.518-6.1699 13.782-12.746 19.003-19.269 0.823-0.9828 1.6459-1.9658 2.4688-2.9487 62.797-3.8185 99.661-2.981 121.35 0.4533 62.026 9.8227-0.1125 40.889 65.261 45.02-21.072 6.1079-42.052 12.225-64.763 17.708-24.515 6.3522-50.196 12.227-75.345 18.313-27.549 6.7262-56.794 12.696-85.596 18.843-145.83 27.626-290.95 55.709-440.24 81.349-34.597 6.0017-69.614 11.771-105.38 17.015-37.539 5.6593-75.344 11.145-114.09 15.904-40.233 4.8589-80.805 9.4166-121.55 13.809-43.882 4.817-87.855 9.5447-132.18 13.918-46.033 4.4719-92.15 8.8552-138.56 12.909-44.838 3.8889-89.643 7.8245-134.8 11.315-48.112 3.8797-96.354 7.5893-144.83 10.964-49.209 3.4476-98.517 6.7338-147.86 9.9744-52.418 3.4132-104.98 6.6079-157.54 9.7804-53.127 3.1119-106.22 6.2831-159.5 9.1174-53.858 2.9461-107.87 5.6064-162.02 7.9221-55.115 2.4508-110.33 4.6522-165.54 6.8673-58.384 2.45-116.69 5.1177-175.25 7.1041-60.356 2.0878-120.83 3.8221-181.42 5.0429-60.8 1.3277-121.64 2.3663-182.56 3.002-61.539 0.5163-123.09 0.8398-184.65 1.1091-68.66 0.1679-137.33-0.1249-205.95-0.9428-74.2-1.0615-148.37-2.2994-222.38-4.3826-82.936-2.1056-165.87-4.2435-248.74-6.5743-87.231-2.5376-174.42-5.2386-261.47-8.337-91.934-3.2725-183.82-6.7044-275.51-10.603-96.276-4.1158-192.45-8.4692-288.33-13.479-100.23-5.2798-200.3-10.858-300.03-17.076-104.78-6.5097-209.62-12.99-313.91-20.283-102.26-7.4491-204.11-15.479-305.08-24.591-95.596-8.4799-191.16-17.173-284.32-28.179-83.309-10.127-165.47-21.207-245.8-33.614-76.629-11.73-153.43-23.366-228.44-36.157-70.355-11.947-140.01-24.346-206.32-38.543-63.224-13.635-125.46-27.741-187.18-42.073-61.358-14.424-122.54-28.937-181.68-44.304-62.157-15.994-123.28-32.395-184.55-48.737-65.162-17.219-129.87-34.614-193.92-52.265-62.625-17.17-125.46-34.26-187.56-51.63-62.548-17.159-125.95-33.98-189.58-50.715-62.463-16.548-124.81-33.142-187.95-49.423-62.081-16.161-123.84-32.451-186.44-48.404-63.083-16.011-126.45-31.91-191.3-47.176-60.382-14.15-121.02-28.209-184.37-40.962-61.339-12.262-123.87-23.875-186.97-35.163-67.325-12.138-135.3-23.898-203.9-35.274-73.412-11.929-147.63-23.314-222.45-34.294-75.681-11.209-151.97-21.981-229.07-32.136-70.336-9.2892-140.53-18.698-211.24-27.686-60.386-7.5756-120.88-15.162-183-21.151-55.027-4.9323-110.74-9.0773-167.5-11.356-58.555-2.1734-117.4-3.3352-176.36-3.4347-57.675 0-115.42 0.4488-172.74 2.7159-49.546 2.1311-99.138 4.7463-146.21 10.384-141.61 18.062-354.12 65.483 241.33-48.149-21.38 3.8269-42.677 7.6212-61.869 12.554l-373.09 48.713z"/>
  <path stroke-width=".84141" d="m3832.4 3061.2c77.978 8.9185 127 84.667 349.25 74.084 370.42 10.583 574.65 14.362 861.09 29.762 79.86 5.6521 160.03 10.402 240.29 14.871 80.662 4.4619 161.53 8.1665 242.44 11.71 78.78 3.4272 157.66 6.3909 236.57 9.1954 80.328 2.6864 160.66 5.4624 241.17 6.8693 85.023 1.2619 170.08 2.0323 255.13 2.8142 86.041 0.9639 172.07 1.5073 258.14 1.2373 92.896-0.5179 185.82-1.7841 278.61-3.8587 92.616-1.708 184.92-5.2435 277.14-9.222 93.056-3.9107 185.86-8.8505 278.58-14.035 94.539-5.4627 188.43-12.68 282.12-20.372 98.79-8.4009 197.02-17.943 295.21-27.524 95.05-8.814 189.58-18.599 284.41-27.856 88.225-8.2604 175.94-17.511 263.36-27.217 89.044-9.4974 177.47-20.014 266.18-30.095 85.301-10.252 170.33-20.916 254.83-32.338 89.633-11.489 178.32-24.311 266.68-37.506 87.307-12.927 172.99-27.662 257.56-43.594 83.598-15.83 166.31-32.455 248.4-49.675 83.458-18.069 167.02-36.018 249.08-55.253 101.67-24.616 294.05-72.237-165.23 41.488-13.31 3.296 26.473-6.7039 39.621-10.12 34.314-8.9145 43.181-11.45 76.985-20.682 73.715-20.548 147-41.375 219.67-62.604 66.621-19.52 131.74-39.976 196.38-60.691 64.844-20.671 127.61-42.505 190.2-64.424 63.414-21.997 126.18-44.338 188.56-66.884 63.477-22.938 125.83-46.448 188.66-69.71 57.841-21.216 114.11-43.211 170.87-64.96 54.687-20.67 109.78-41.14 165.4-61.344 54.806-19.886 109.61-39.776 165.27-59.215 52.607-18.606 106.36-36.573 161.99-53.462 56.628-17.037 115.25-32.779 174.16-48.289 151.25-38.165 300.3-78.469 458.26-111.36 57.024-11.202 114.93-21.527 173.49-31.129 56.729-9.3879 115.72-15.74 175.05-21.155 60.549-4.8463 122.16-6.3146 183.62-6.6851 61.536-0.3883 122.07 2.7112 182.03 8.4076 61.468 6.2383 120.74 15.811 179.29 25.891 55.737 9.8535 110.1 21.072 162.9 33.561 50.792 12.186 97.144 27.301 143.68 42.215 42.204 14.084 83.79 28.508 125.44 42.893 24.221 8.3699 12.399 4.0746 35.472 12.88l-285.46 76.699c-22.308-8.2948-10.8-4.147-34.555-12.426-41.162-14.33-82.211-28.732-124.32-42.542-45.374-14.526-91.159-28.902-141.06-40.455-52.162-11.903-105.5-22.844-160.44-32.162-57.464-9.5013-115.52-18.626-176.05-23.8-58.636-4.626-117.96-6.5856-177.6-5.7523-60.355 1.0567-120.82 3.0357-179.83 8.9428-58.431 5.9486-116.21 13.134-171.94 22.867-57.931 9.9192-115.54 20.259-171.53 32.092-28.381 6.1886-56.529 12.506-84.352 19.157-9.455 2.2606-37.629 9.1933-28.282 6.8488 76.105-19.089 364.93-91.214 228.54-57.097-59.011 15.332-117.97 30.751-174.87 47.523-56.325 16.31-110.72 33.808-162.92 52.517-56.312 19.081-110.91 39.08-165.81 58.911-55.648 20.112-110.72 40.509-165.69 60.962-56.929 21.823-113.52 43.81-171.07 65.325-63.262 23.073-125.24 46.799-188.65 69.804-62.218 22.64-124.78 45.107-188.2 67.117-62.832 21.86-124.91 44.138-189.69 64.932-64.545 20.928-129.69 41.517-196.04 61.366-72.906 21.217-145.9 42.367-219.71 62.997-169.37 47.24-345.49 89.793-522.02 131.82-82.532 18.922-166.19 36.913-249.98 54.774-82.399 17.099-165.55 33.48-249.42 49.205-85.126 15.547-171.36 29.862-258.93 42.67-88.738 13-177.73 25.679-267.52 37.25-84.788 11.209-169.96 21.902-255.6 31.829-88.72 10.159-177.37 20.451-266.44 30.016-87.598 9.5145-175.46 18.565-263.72 26.868-94.65 9.3094-189.2 18.796-284.06 27.718-98.441 9.5665-196.98 18.964-296.1 27.154-94.128 7.5129-188.44 14.586-283.45 19.766-92.944 5.1082-186 9.8734-279.27 13.72-92.502 3.8319-185.14 6.929-278.01 8.6066-93.184 1.7692-186.43 3.2156-279.71 3.4527-86.31 0.1285-172.59-0.6149-258.88-1.4887-85.224-0.8259-170.46-1.6139-255.64-3.083-80.809-1.7858-161.51-4.3946-242.16-7.2315-78.992-2.8873-157.96-5.9381-236.82-9.4603-81.076-3.6459-162.12-7.4543-242.95-12.039-80.489-4.5948-160.89-9.4853-240.98-15.267-78.474-5.6611-156.82-11.647-235.27-17.386-77.397-6.0487-154.54-12.662-231.45-19.777-427.78-22.557-400.62-64.841-470.11-64.89-180.37-106.69-50.49-84.695 0-84.667z"/>
  <path stroke-width=".82452" d="m-11004 1791.9c4.539 16.73 9.224 33.36 13.294 50.354 5.332 23.402 10.322 46.946 14.921 70.682 4.508 26.091 9.748 51.878 14.844 77.728 5.359 26.777 9.705 53.935 13.765 81.19 4.149 28.674 7.6 57.553 10.851 86.472 3.372 29.439 6.014 59.042 8.514 88.664 2.512 30.533 4.635 61.129 6.682 91.735 1.983 30.546 3.669 61.131 5.246 91.728 1.594 30.588 2.913 61.205 4.114 91.832 1.217 30.641 2.227 61.299 3.255 91.954 0.957 29.085 1.766 58.179 2.556 87.275 0.754 28.473 1.386 56.952 2.006 85.432 0.599 27.5 1.11 55.005 1.583 82.51 0.469 26.902 0.877 53.806 1.238 80.712 0.394 27.035 0.671 54.072 0.964 81.11 0.297 26.737 0.552 53.475 0.77 80.213 0.248 25.851 0.426 51.703 0.619 77.555 0.179 25.784 0.317 51.568 0.469 77.353 0.583 26.23-0.315 52.408-1.378 78.579-1.087 25.003-2.134 50.009-3.09 75.023-0.919 23.747-1.73 47.503-2.486 71.262-0.236 21.49-1.788 42.807-3.628 64.101l-160.54 116.63c1.743-20.74 4.157-41.387 4.306-62.335 0.79-23.842 1.57-47.684 2.464-71.518 0.988-25.065 1.932-50.135 3.097-75.184 1.13-25.613 2.583-51.237 1.939-76.926-0.127-25.766-0.282-51.532-0.455-77.297-0.165-25.846-0.366-51.692-0.557-77.538-0.23-26.72-0.459-53.439-0.725-80.158-0.272-26.999-0.598-53.997-0.942-80.994-0.366-26.867-0.739-53.733-1.187-80.597-0.464-27.466-0.932-54.932-1.505-82.394-0.577-28.424-1.201-56.847-1.925-85.264-0.741-29.036-1.537-58.069-2.448-87.095-0.955-30.596-1.945-61.189-3.117-91.769-1.185-30.482-2.459-60.957-3.996-91.406-1.531-30.423-3.143-60.839-5.08-91.213-1.966-30.409-4.024-60.806-6.463-91.142-2.416-29.298-4.967-58.578-8.221-87.706-3.13-28.508-6.448-56.98-10.451-85.254-3.893-26.714-8.05-53.342-13.237-79.589-5.061-25.909-10.502-51.659-14.91-77.834-4.439-23.249-9.323-46.267-14.609-69.129-3.868-16.461-8.544-32.416-12.865-48.622z"/>
  <path stroke-width=".77614" d="m11425 1873.5c3.905 19.556 6.552 39.519 8.44 59.854 2.161 25.197 3.825 50.485 4.514 75.912 0.511 27.718 0.602 55.452 0.727 83.181-0.157 30.62-1.348 61.2-2.286 91.775-0.562 31.613-2.292 63.087-4.116 94.552-1.553 31.975-4.084 63.764-6.645 95.548-2.337 31.394-4.936 62.702-8.061 93.906-2.989 31.214-7.048 62.102-10.798 93.079-3.575 31.751-7.107 63.504-10.96 95.167-3.733 32.15-7.631 64.225-11.915 96.185-4.268 31.559-8.133 63.26-11.675 95.064-3.883 32.717-8.004 65.364-12.588 97.83-4.859 32.296-9.028 64.854-13.418 97.328-4.79 32.646-9.224 65.428-13.797 98.158-4.71 31.696-9.469 63.372-13.951 95.159-4.191 29.642-7.818 59.49-11.369 89.359-3.447 28.927-6.336 58.022-9.017 87.168-2.646 29.382-4.876 58.859-7.022 88.351-1.813 25.208-3.593 50.422-5.378 75.636-1.139 14.415-2.015 28.858-2.48 43.373l-141.64 118.64c0.244-15.16 0.601-30.262 1.972-45.286 1.848-25.276 3.696-50.552 5.548-75.828 2.177-29.689 4.307-59.39 6.888-88.992 2.522-29.496 5.303-58.94 8.69-88.199 3.431-30.198 7.152-60.306 11.16-90.307 4.449-31.88 9.061-63.697 13.975-95.39 4.891-32.555 8.84-65.488 13.824-98.012 4.771-32.363 8.392-65.168 13.381-97.453 4.743-32.016 8.8-64.263 12.93-96.511 3.5-32.078 7.113-64.123 11.448-95.925 4.185-31.883 8.631-63.647 12.023-95.804 3.9-31.592 7.71-63.193 10.957-94.993 3.599-30.831 7.833-61.462 10.969-92.432 3.222-30.946 6.274-61.899 8.326-93.134 2.586-31.497 5.44-62.948 6.871-94.665 1.871-31.091 4.011-62.166 4.462-93.43 0.886-30.119 1.898-60.229 2.648-90.359-0.161-27.485-0.311-54.971-0.637-82.453-0.389-24.553-1.672-48.938-3.798-73.259-1.634-19.394-3.574-38.598-7.808-56.994l139.61-125.79z"/>
  <path stroke-width=".63578" d="m-12239 806.14c10.112 7.7612 19.394 15.959 28.716 24.116 11.836 9.9422 22.906 20.224 32.851 30.99 10.574 11.489 20.453 23.221 29.838 35.127 9.361 12.387 19.193 24.613 27.905 37.2 9.617 14.338 16.742 29.289 23.678 44.232 6.352 15.385 13.548 30.611 20.622 45.862 7.102 15.082 12.995 30.37 18.523 45.716 5.313 15.818 11.671 31.478 17.445 47.228 5.771 15.493 10.686 31.106 15.319 46.753 4.476 15.826 9.979 31.523 14.916 47.292 4.812 15.825 9.026 31.722 13.322 47.607 3.5 12.965 6.989 25.932 10.479 38.898 2.607 9.2444 4.894 18.522 7.038 27.815l-147.61 50.167c-2.073-9.22-4.273-18.426-6.814-27.598-3.421-12.987-6.842-25.974-10.273-38.959-4.187-15.81-8.295-31.631-13.027-47.378-4.892-15.812-10.47-31.534-15.037-47.384-4.512-15.511-9.307-30.988-14.952-46.347-5.719-15.772-12.12-31.44-17.5-47.261-5.372-15.144-11.1-30.233-18.04-45.117-7.024-15.264-14.367-30.465-20.611-45.872-6.652-14.516-13.468-29.045-22.743-42.975-8.564-12.433-18.288-24.491-27.529-36.716-9.176-11.699-18.907-23.198-29.305-34.468-9.706-10.443-20.541-20.401-32.096-30.034-9.222-7.9596-18.369-15.974-28.43-23.508l143.32-55.383z"/>
  <path stroke-width=".63578" d="m-11681 927.97c0.524-7.7469-0.366-15.395-2.543-23.009-2.408-7.906-8.007-15.067-13.888-22.094-6.158-7.5668-13.157-14.783-21.017-21.658-8.158-6.8328-18.221-12.456-28.612-17.815-9.94-5.6576-21.478-9.473-33.651-12.682-12.04-2.5404-24.289-4.1036-36.879-4.7895-13.153 0.0812-26.124 0.74408-38.834 2.9806-14.428 1.7195-27.934 5.2338-41.308 8.9914-91.863 32.497 178.76-72.46 101.56-37.21-14.692 6.4508-26.683 14.883-37.852 23.696-11.638 9.452-21 19.896-29.774 30.515-9.105 10.976-16.501 22.466-23.401 34.072-6.471 11.238-10.635 22.926-13.091 34.786-2.559 11.317-0.288 22.467 3.722 33.496 4.438 11.182 12.946 21.26 22.534 30.903 9.662 9.173 21.121 17.425 33.897 24.826 12.406 7.1129 25.12 13.931 39.505 19.316 13.014 4.8966 26.65 8.9435 41.475 10.822 14.97 1.7472 30.408 2.2913 45.475 0.8288 14.087-1.2252 27.642-4.2961 40.038-8.7288 74.226-28.6-189.54 78.81-105.18 37.608 9.681-5.0836 17.838-11.136 25.83-17.273 7.999-6.8615 15.686-13.868 22.911-21.077 7.284-7.5633 13.477-15.511 19.476-23.517 5.896-8.1611 10.813-16.595 15.377-25.095 4.047-7.7561 7.91-15.55 11.793-23.34 3.065-5.9749 5.826-12.015 9.031-17.959 2.51-38.192 140.62-86.186 154.6-45.029 2.963 8.6456 4.977 17.4 6.692 26.179 2.153 11.727 3.556 23.504 4.924 35.278 1.576 14.057 2.716 28.133 3.814 42.208 1.441 15.648 0.643 31.332 0.135 46.99-0.541 16.618-1.077 33.237-1.515 49.857-0.563 16.824-0.551 33.657-1.46 50.476-1.382 16.373-3.24 32.728-4.886 49.09-1.533 15.571-2.957 31.147-4.271 46.727-1.2 14.314-2.251 28.632-3.318 42.95-0.855 11.462-1.705 22.923-2.555 34.385-0.123 1.6561-0.247 3.3123-0.37 4.9685l-149.2 48.333c0.131-1.659 0.263-3.318 0.394-4.977 0.912-11.482 1.822-22.963 2.734-34.444 1.138-14.347 2.276-28.693 3.412-43.04 1.329-15.617 2.69-31.232 4.279-46.839 1.588-16.308 3.364-32.608 5.025-48.913 1.452-16.72 1.025-33.482 1.709-50.221 0.448-16.624 0.85-33.248 1.437-49.869 0.473-15.422 1.468-30.875 0.302-46.29-1.079-13.984-2.198-27.969-3.76-41.935-1.324-11.599-2.683-23.2-4.73-34.757-1.584-8.4952-3.42-16.969-6.089-25.356-12.33-39.507 170.2-88.971 143.65-52.282-1.792 6.386-5.969 12.389-8.72 18.62-3.934 7.8316-7.864 15.664-11.815 23.492-4.446 8.7854-9.068 17.546-14.676 26.057-5.487 8.4299-11.757 16.654-18.713 24.622-6.539 7.7229-14.203 14.942-22.133 22.094-7.159 6.9324-15.475 13.381-24.581 19.29-48.82 32.593-117.26 50.716-180.54 69.787-14.082 3.129-28.476 5.5098-43.474 5.7424-16.402 0.017-32.894-0.7957-48.718-3.7511-15.542-3.3153-30.327-7.8111-44.164-13.476-14.67-6.232-28.205-13.409-41.146-21.062-13.485-8.232-25.779-17.218-36.091-27.2-10.482-10.638-19.777-21.736-25.18-33.925-4.911-12.02-8.356-24.337-6.377-36.815 1.509-12.67 5.487-25.075 11.353-37.214 6.58-11.999 13.739-23.869 22.484-35.294 8.666-11.02 17.376-22.101 28.632-32.146 10.423-9.6484 22.045-18.861 35.953-26.533 56.365-28.107 119.15-51.231 184.92-68.915 14.069-3.3125 28.525-5.7908 43.315-7.3679 13.931-1.0338 28.041-1.6263 41.981-0.24891 13.579 1.4869 27.013 3.7955 39.627 7.4036 12.986 4.0494 25.138 8.9471 36.039 15.079 11.268 6.0642 21.985 12.55 30.826 20.145 8.22 7.3016 15.664 14.919 22.167 22.914 6.694 7.9586 13.038 16.054 16.332 24.918 2.662 8.1906 4.869 16.423 4.137 24.834l-149 48.865z"/>
  <path stroke-width=".72157" d="m11017 1106.7c-43.317 33.985 178.54-107.61 91.803-48.012-10.061 7.0834-19.633 14.736-28.871 22.747-10.317 9.0214-19.487 19.124-28.274 29.462-9.055 11.43-17.823 23.054-26.1 34.997-9.335 13.096-17.571 26.772-25.421 40.692-8.281 14.137-16.227 28.435-23.843 42.9-7.354 14.286-13.383 29.124-19.287 43.981-5.863 14.278-10.39 28.918-13.879 43.854-3.535 14.508-5.807 29.188-7.141 44.006-1.525 14.428-1.679 28.905-0.852 43.371 0.86 14.486 4.272 28.624 8.609 42.493 4.67 15.041 10.551 29.709 16.748 44.24 6.07 14.788 13.467 28.962 22.261 42.467 8.217 12.844 18.747 24.086 29.343 35.192 9.335 10.402 20.265 19.129 32.61 26.14 12.681 6.8713 25.92 12.432 39.696 16.981 12.768 3.8834 25.484 8.271 38.772 10.226 14.752 2.7497 29.642 2.1895 44.537 1.3291 15.596-0.4925 30.721-4.1857 45.81-7.604 50.945-17.348 139.85-72.14-83.103 48.631 14.998-7.9073 28.514-17.803 41.333-28.516 12.769-10.874 23.341-23.47 32.166-37.332 8.795-14.005 15.179-29.063 20.453-44.507 4.881-16.564 7.991-33.534 10.05-50.597 2.139-17.442 2.963-34.946 3.028-52.49 0.24-17.366-1.495-34.679-2.911-51.974-0.896-16.344-3.289-32.536-5.699-48.727-1.947-14.886-5.663-29.49-8.971-44.141-3.183-13.565-7.68-26.753-12.757-39.775-4.779-12.49-11.334-24.201-17.781-35.962-6.285-11.379-12.95-22.646-20.86-33.098-7.899-10.535-17.358-19.863-26.715-29.232-9.73-9.5526-20.027-18.646-30.751-27.204-10.88-8.6774-22.671-16.252-34.655-23.491-10.006-6.1207-20.351-12.004-31.606-15.838-7.709-2.8225-15.945-3.522-23.935-1.5331-1.319 0.2632-2.639 0.5264-3.959 0.7896l117.88-82.815c1.482-0.057 2.965-0.1143 4.448-0.1715 9.683 0.8227 19.022 2.8405 27.814 6.9186 11.391 5.2514 22.386 11.166 32.855 17.927 12.373 7.7301 24.471 15.889 35.687 25.074 10.933 9.0549 21.671 18.37 31.581 28.427 9.787 9.8578 19.561 19.765 27.759 30.88 8.198 11.038 15.339 22.769 21.881 34.743 6.732 12.269 13.543 24.49 18.669 37.468 5.333 13.635 10.19 27.386 13.725 41.55 3.34 14.961 7.237 29.852 9.376 45.018 2.455 16.457 5.237 32.89 6.078 49.514 1.447 17.619 3.331 35.251 3.415 52.932 0.06 17.964-0.195 35.895-2.351 53.771-1.783 17.74-4.521 35.344-8.889 52.705-4.313 16.446-10.585 32.448-19.06 47.413-8.19 15.066-17.52 29.184-30.382 41.182-12.213 11.734-25.315 22.554-40.088 31.371-49.166 26.737-108.84 70.932-170.47 84.857-15.61 3.1249-31.378 5.4364-47.38 5.5553-15.706 0.2797-31.373-0.702-46.724-4.0608-13.537-3.3277-26.902-7.2921-39.999-11.937-14.369-5.3483-28.24-11.825-41.399-19.475-12.92-8.2815-24.575-18.064-34.687-29.328-11.089-11.789-21.979-23.812-30.622-37.363-9.17-14.16-17.085-28.937-23.44-44.426-6.483-14.86-12.507-29.916-17.431-45.305-4.92-14.719-8.824-29.783-10.179-45.204-1.448-15.036-1.548-30.196-0.131-45.242 1.164-15.337 2.623-30.606 6.29-45.633 3.354-15.462 6.892-30.852 13.048-45.593 5.658-15.275 11.855-30.379 18.678-45.227 7.239-14.794 15.187-29.277 23.6-43.507 8.042-13.952 15.063-28.498 24.968-41.421 7.769-12.506 16.565-24.338 25.551-36.088 8.247-11.168 17.532-21.52 27.243-31.58 9.052-8.4174 18.267-16.659 28.285-24.06 47.919-37.004 105.94-60.363 158.73-90.431l-114.19 87.102z"/>
  <path stroke-width=".63578" d="m-11167 920.32c0.523-7.7469-0.366-15.395-2.543-23.009-2.408-7.906-8.008-15.067-13.888-22.094-6.158-7.5668-13.157-14.783-21.017-21.658-8.158-6.8328-18.221-12.456-28.612-17.815-9.94-5.6577-21.478-9.473-33.651-12.682-12.041-2.5404-24.289-4.1035-36.879-4.7895-13.153 0.0813-26.125 0.74409-38.834 2.9806-14.428 1.7195-27.934 5.2338-41.308 8.9914-91.863 32.497 178.76-72.46 101.56-37.21-14.692 6.4508-26.683 14.883-37.852 23.696-11.638 9.452-21 19.896-29.774 30.515-9.105 10.976-16.502 22.466-23.401 34.072-6.471 11.238-10.635 22.926-13.091 34.786-2.559 11.317-0.288 22.467 3.722 33.496 4.438 11.182 12.946 21.26 22.534 30.903 9.661 9.173 21.121 17.425 33.897 24.826 12.406 7.1129 25.12 13.932 39.505 19.316 13.014 4.8966 26.65 8.9435 41.475 10.822 14.97 1.7472 30.408 2.2913 45.474 0.8288 14.088-1.2253 27.643-4.2961 40.038-8.7288 74.227-28.6-189.54 78.81-105.18 37.608 9.681-5.0836 17.837-11.136 25.829-17.273 8-6.8615 15.687-13.869 22.912-21.077 7.284-7.5633 13.476-15.511 19.476-23.517 5.895-8.1611 10.813-16.595 15.377-25.095 4.047-7.7561 7.91-15.55 11.793-23.34 3.065-5.9749 5.826-12.015 9.031-17.959 2.51-38.192 140.62-86.186 154.6-45.029 2.963 8.6461 4.977 17.4 6.692 26.179 2.153 11.727 3.556 23.504 4.924 35.278 1.576 14.057 2.716 28.133 3.814 42.209 1.441 15.648 0.642 31.332 0.134 46.99-0.54 16.618-1.077 33.237-1.514 49.857-0.563 16.824-0.552 33.657-1.46 50.476-1.382 16.373-3.24 32.728-4.886 49.09-1.534 15.571-2.957 31.147-4.272 46.727-1.199 14.314-2.25 28.632-3.318 42.95-0.854 11.462-1.704 22.923-2.555 34.385-0.122 1.6562-0.246 3.3123-0.369 4.9685l-149.2 48.333c0.131-1.659 0.263-3.318 0.394-4.977 0.912-11.482 1.822-22.963 2.734-34.444 1.138-14.347 2.276-28.693 3.412-43.04 1.329-15.617 2.69-31.232 4.279-46.839 1.588-16.308 3.364-32.608 5.025-48.913 1.452-16.72 1.025-33.482 1.709-50.221 0.448-16.624 0.849-33.248 1.437-49.869 0.473-15.422 1.468-30.875 0.302-46.29-1.079-13.984-2.198-27.969-3.76-41.935-1.324-11.599-2.683-23.2-4.73-34.757-1.584-8.4952-3.42-16.969-6.09-25.356-12.329-39.507 170.2-88.971 143.65-52.282-1.792 6.386-5.969 12.389-8.72 18.62-3.934 7.8316-7.864 15.664-11.816 23.492-4.445 8.7854-9.067 17.546-14.675 26.057-5.487 8.4299-11.757 16.654-18.713 24.622-6.539 7.7229-14.203 14.942-22.133 22.094-7.159 6.9324-15.475 13.381-24.582 19.29-48.819 32.593-117.26 50.716-180.54 69.787-14.083 3.129-28.476 5.5098-43.475 5.7424-16.401 0.017-32.893-0.7957-48.718-3.7511-15.541-3.3153-30.327-7.8116-44.163-13.476-14.67-6.232-28.205-13.409-41.146-21.062-13.486-8.232-25.779-17.218-36.092-27.2-10.482-10.638-19.776-21.736-25.18-33.925-4.91-12.02-8.355-24.337-6.376-36.815 1.509-12.67 5.487-25.075 11.352-37.214 6.581-11.999 13.74-23.869 22.485-35.294 8.666-11.02 17.376-22.101 28.632-32.146 10.423-9.6484 22.045-18.861 35.953-26.533 56.365-28.107 119.15-51.231 184.92-68.915 14.069-3.3125 28.524-5.7908 43.315-7.3679 13.931-1.0338 28.041-1.6263 41.98-0.24886 13.579 1.4868 27.014 3.7954 39.628 7.4036 12.985 4.0495 25.138 8.9471 36.038 15.079 11.269 6.0642 21.986 12.55 30.827 20.145 8.22 7.3016 15.664 14.919 22.167 22.914 6.694 7.9586 13.038 16.054 16.332 24.918 2.662 8.1906 4.869 16.423 4.137 24.834l-149 48.865z"/>
  <path stroke-width=".63578" d="m-10863 926.03c-1.521-7.7428-1.172-15.577-1.089-23.365-0.338-8.7165 0.645-17.379 2.421-26.012 2.089-9.2909 6.698-18.164 12.297-26.791 5.614-8.2371 13.692-15.511 22.578-22.387 46.833-33.291 112.55-57.168 179.64-68.89 13.539-1.2053 27.341-0.96147 40.755 0.68732 12.808 1.1184 24.862 3.815 36.202 7.7438 12.67 4.1194 23.266 10.033 32.638 16.807 10.043 7.2475 18.182 15.383 24.769 24.091 6.828 9.273 11.106 19.085 14.468 29.074 3.744 10.521 5.213 21.247 5.671 32.011 0.269 12.077-1.755 24.085-4.261 36.033-2.99 13.198-7.376 26.234-12.379 39.169-5.276 13.297-11.812 26.348-19.259 39.202-8.29 14.57-19.513 28.345-31.285 41.851-12.69 14.574-26.703 28.637-41.297 42.444-14.156 13.328-29.664 26.022-44.576 38.994-13.721 12.396-28.296 24.364-43.262 36.141-14.235 11.114-28.806 22.048-43.339 33-10.285 7.9693-20.929 15.752-33.008 22.618-6.207 3.3273-13.065 6.0932-19.884 8.8608-16.188-23.545 4.303-13.288 21.003-8.1386 11.436 4.7034 22.969 9.3052 34.343 14.075 13.369 4.9316 25.965 10.632 39.332 15.568 14.004 4.889 27.755 10.075 41.988 14.687 14.852 5.2848 30.795 8.6966 47.054 11.635 15.549 3.0967 31.596 4.9594 47.847 5.4373 18.389 0.5398 36.787-0.932 54.813-3.1728 19.125-2.193 38.006-4.989 56.465-8.8899 19.93-3.9984 38.729-9.9366 57.477-15.77 94.55-36.458-200.59 81.254-87.275 31.341 19.125-8.6125 36.016-18.988 52.565-29.521 10.104-6.1024 19.219-12.756 27.679-19.802l153.15-42.658c-8.061 7.5837-16.204 15.203-26.863 21.412-16.541 10.762-32.898 21.727-51.52 31.032-60.509 30.343-129.82 52.858-198.19 75.036-19.197 5.6638-38.683 10.981-59.124 14.52-19.035 3.2406-38.293 5.8698-57.771 7.7622-19.042 1.5222-38.258 2.5567-57.406 1.0682-16.886-1.5034-33.517-3.7361-49.722-7.2062-16.873-3.4863-33.22-7.7995-48.79-13.286-14.306-4.9033-28.522-9.928-42.536-15.17-13.332-5.2124-26.376-10.723-39.739-15.904-10.785-4.4395-21.545-9.0455-33.092-12.616-20.771-5.4689-18.765 6.3916-37.792-12.487 6.837-2.7031 13.699-5.3787 20.582-8.0326 13.451-5.45 24.846-12.605 34.832-20.553 14.559-10.924 29.159-21.825 43.528-32.853 15.08-11.611 30.158-23.239 43.708-35.62 14.83-12.975 30.239-25.669 44.75-38.79 15.134-13.333 29.099-27.247 41.878-41.564 12.022-12.943 23.339-26.238 32.275-40.195 7.414-12.578 14.798-25.154 19.935-38.222 5.521-12.524 9.846-25.256 13.122-38.102 3.018-11.399 5.017-22.935 5.317-34.504 0.327-10.086-0.912-20.186-4.18-30.066-2.877-9.1883-6.247-18.259-12.556-26.774-5.76-7.7928-13.129-14.978-22.269-21.324-8.411-5.5908-18.047-10.189-29.224-13.277-10.669-2.6601-21.731-4.3029-33.163-4.8699-12.328-0.23555-24.645-0.13211-36.2 3.0779-65.142 17.591 199.18-79.626 106.12-38.997-8.788 6.2657-18.083 12.364-24.332 19.871-6.73 7.4562-11.589 15.548-14.301 24.007-2.758 8.0009-3.909 16.21-3.632 24.403-0.06 7.3103-0.226 14.622 0 21.931l-147.91 50.22z"/>
  <g stroke-width=".72157">
   <path d="m11427 944.56c10.119 9.9898 19.408 20.542 28.736 31.042 11.845 12.797 22.923 26.032 32.875 39.888 10.582 14.788 20.468 29.889 29.86 45.214 9.368 15.944 19.207 31.681 27.926 47.882 9.623 18.455 16.754 37.699 23.695 56.933 6.357 19.803 13.557 39.4 20.637 59.032 7.107 19.412 13.004 39.091 18.537 58.843 5.316 20.36 11.679 40.517 17.457 60.789 5.775 19.942 10.694 40.038 15.331 60.178 4.479 20.371 9.986 40.574 14.926 60.872 4.816 20.369 9.033 40.83 13.331 61.278 3.503 16.688 6.995 33.378 10.488 50.068 2.609 11.899 4.897 23.841 7.043 35.802 0 0-147.72 64.572-147.72 64.572-2.074-11.868-4.277-23.717-6.819-35.522-3.424-16.716-6.846-33.432-10.28-50.146-4.19-20.35-8.301-40.714-13.037-60.983-4.896-20.353-10.477-40.589-15.048-60.991-4.515-19.965-9.313-39.886-14.963-59.656-5.722-20.301-12.129-40.468-17.513-60.832-5.375-19.492-11.107-38.915-18.053-58.072-7.029-19.647-14.377-39.213-20.625-59.045-6.657-18.684-13.478-37.386-22.76-55.316-8.571-16.003-18.302-31.524-27.55-47.259-9.182-15.058-18.92-29.859-29.326-44.365-9.713-13.442-20.556-26.259-32.119-38.658-9.229-10.245-18.382-20.561-28.451-30.258l143.42-71.286z"/>
   <path d="m11984 1101.4c0.524-9.9715-0.366-19.816-2.545-29.616-2.41-10.176-8.013-19.393-13.898-28.438-6.163-9.7397-13.167-19.028-21.032-27.878-8.165-8.7949-18.235-16.033-28.633-22.931-9.947-7.2823-21.494-12.193-33.676-16.324-12.049-3.2699-24.306-5.2819-36.906-6.1648-13.163 0.10459-26.143 0.95775-38.862 3.8365-14.438 2.2133-27.954 6.7367-41.338 11.573-91.93 41.829 178.89-93.267 101.64-47.895-14.703 8.3032-26.702 19.156-37.88 30.501-11.646 12.166-21.015 25.609-29.795 39.278-9.112 14.128-16.514 28.917-23.418 43.856-6.476 14.465-10.643 29.509-13.101 44.774-2.561 14.566-0.288 28.918 3.724 43.114 4.442 14.392 12.956 27.365 22.551 39.777 9.669 11.807 21.136 22.429 33.922 31.955 12.415 9.1553 25.138 17.932 39.534 24.862 13.023 6.3027 26.669 11.512 41.505 13.93 14.981 2.2489 30.43 2.9492 45.508 1.0668 14.098-1.5771 27.662-5.5297 40.067-11.235 74.28-36.813-189.67 101.44-105.25 48.408 9.688-6.5433 17.851-14.333 25.849-22.234 8.005-8.8316 15.698-17.85 22.928-27.129 7.289-9.7351 13.486-19.965 19.491-30.27 5.899-10.504 10.82-21.36 15.388-32.301 4.049-9.9833 7.915-20.016 11.801-30.042 3.067-7.6907 5.831-15.465 9.038-23.117 2.511-49.159 140.72-110.93 154.72-57.959 2.964 11.128 4.98 22.397 6.696 33.696 2.155 15.094 3.559 30.253 4.927 45.408 1.578 18.094 2.719 36.212 3.817 54.329 1.443 20.141 0.644 40.329 0.135 60.484-0.541 21.39-1.078 42.781-1.515 64.174-0.564 21.656-0.552 43.322-1.461 64.97-1.383 21.075-3.243 42.126-4.89 63.187-1.535 20.043-2.959 40.091-4.275 60.145-1.2 18.424-2.252 36.854-3.32 55.283-0.855 14.753-1.706 29.506-2.557 44.259l-0.369 6.3952-149.31 62.212c0.132-2.1354 0.264-4.2708 0.395-6.4061 0.912-14.779 1.823-29.556 2.735-44.335 1.139-18.466 2.279-36.933 3.415-55.399 1.33-20.101 2.693-40.201 4.283-60.289 1.588-20.991 3.366-41.972 5.028-62.959 1.453-21.522 1.026-43.097 1.71-64.642 0.448-21.397 0.85-42.795 1.438-64.189 0.474-19.851 1.47-39.741 0.303-59.582-1.08-18-2.2-36-3.763-53.977-1.325-14.93-2.685-29.862-4.734-44.738-1.585-10.935-3.422-21.842-6.093-32.637-12.339-50.851 170.32-114.52 143.76-67.295-1.794 8.2198-5.974 15.947-8.726 23.967-3.937 10.08-7.871 20.162-11.825 30.237-4.449 11.308-9.074 22.584-14.686 33.54-5.491 10.85-11.766 21.436-18.727 31.693-6.544 9.9406-14.213 19.232-22.149 28.438-7.164 8.923-15.486 17.224-24.599 24.829-48.855 41.952-117.35 65.28-180.67 89.827-14.092 4.0274-28.496 7.0918-43.505 7.3912-16.414 0.022-32.918-1.0242-48.754-4.8281-15.553-4.2674-30.349-10.054-44.196-17.346-14.681-8.0216-28.225-17.259-41.176-27.11-13.495-10.596-25.798-22.163-36.117-35.01-10.49-13.693-19.791-27.978-25.199-43.667-4.914-15.471-8.362-31.326-6.381-47.386 1.51-16.308 5.491-32.276 11.361-47.901 6.585-15.444 13.75-30.722 22.501-45.428 8.672-14.184 17.388-28.447 28.653-41.377 10.43-12.419 22.061-24.277 35.979-34.152 56.406-36.178 119.24-65.942 185.05-88.704 14.079-4.2636 28.545-7.4536 43.346-9.4836 13.941-1.3306 28.062-2.0934 42.011-0.32039 13.589 1.9139 27.034 4.8853 39.657 9.5296 12.995 5.2122 25.156 11.516 36.064 19.408 11.277 7.8055 22.002 16.153 30.849 25.929 8.227 9.3983 15.676 19.203 22.183 29.493 6.699 10.244 13.048 20.664 16.344 32.073 2.664 10.543 4.873 21.139 4.141 31.965l-149.11 62.897z"/>
   <path d="m10400 1293.5c-1.522-9.9662-1.172-20.051-1.089-30.074-0.339-11.22 0.645-22.369 2.422-33.481 2.091-11.959 6.703-23.38 12.306-34.484 5.618-10.602 13.702-19.965 22.594-28.815 46.868-42.85 112.64-73.584 179.78-88.671 13.549-1.5514 27.361-1.2375 40.784 0.8847 12.818 1.4396 24.88 4.9105 36.229 9.9675 12.679 5.3023 23.283 12.914 32.661 21.633 10.051 9.3287 18.196 19.8 24.787 31.009 6.834 11.936 11.115 24.566 14.479 37.423 3.747 13.542 5.216 27.348 5.675 41.203 0.269 15.545-1.756 31.002-4.264 46.379-2.993 16.988-7.381 33.767-12.388 50.416-5.28 17.116-11.821 33.914-19.273 50.458-8.296 18.754-19.527 36.484-31.308 53.869-12.699 18.758-26.722 36.86-41.327 54.631-14.166 17.156-29.685 33.494-44.609 50.192-13.731 15.955-28.316 31.36-43.293 46.519-14.246 14.305-28.827 28.379-43.371 42.476-10.293 10.258-20.944 20.276-33.032 29.113-6.212 4.2828-13.074 7.8429-19.898 11.405-16.2-30.306 4.306-17.104 21.018-10.476 11.445 6.054 22.986 11.977 34.369 18.117 13.377 6.3477 25.983 13.685 39.359 20.038 14.015 6.293 27.776 12.968 42.019 18.904 14.863 6.8024 30.818 11.194 47.089 14.976 15.561 3.9858 31.619 6.3834 47.882 6.9986 18.402 0.6948 36.813-1.1996 54.853-4.0839 19.139-2.8228 38.033-6.4217 56.505-11.443 19.946-5.1465 38.758-12.79 57.519-20.298 94.619-46.928-200.74 104.59-87.338 40.34 19.139-11.086 36.042-24.441 52.603-37.998 10.112-7.8547 19.234-16.419 27.7-25.489l153.26-54.908c-8.067 9.7613-16.216 19.568-26.883 27.56-16.553 13.853-32.921 27.966-51.557 39.944-60.553 39.056-129.92 68.036-198.33 96.583-19.21 7.2902-38.71 14.134-59.166 18.69-19.049 4.1711-38.322 7.5554-57.813 9.9912-19.057 1.9593-38.286 3.2908-57.448 1.3749-16.899-1.9351-33.542-4.8089-49.759-9.2755-16.885-4.4874-33.244-10.039-48.825-17.101-14.317-6.3112-28.543-12.779-42.568-19.527-13.341-6.7091-26.395-13.802-39.767-20.471-10.793-5.7143-21.561-11.643-33.116-16.238-20.786-7.0393-18.779 8.2271-37.82-16.072 6.842-3.4793 13.709-6.9232 20.597-10.339 13.461-7.0151 24.865-16.225 34.857-26.454 14.57-14.06 29.181-28.092 43.56-42.287 15.091-14.945 30.18-29.912 43.74-45.848 14.841-16.701 30.261-33.039 44.782-49.929 15.146-17.161 29.121-35.071 41.909-53.5 12.03-16.66 23.356-33.773 32.298-51.738 7.42-16.19 14.81-32.378 19.95-49.197 5.526-16.12 9.853-32.508 13.132-49.043 3.02-14.672 5.02-29.52 5.32-44.412 0.328-12.982-0.912-25.983-4.182-38.699-2.879-11.827-6.252-23.503-12.565-34.463-5.765-10.031-13.139-19.278-22.286-27.448-8.417-7.1963-18.06-13.114-29.245-17.09-10.677-3.4239-21.747-5.5385-33.188-6.2682-12.336-0.3032-24.662-0.1701-36.225 3.9617-65.191 22.642 199.32-102.49 106.2-50.195-8.795 8.0649-18.097 15.914-24.35 25.577-6.734 9.5972-11.597 20.013-14.311 30.9-2.76 10.298-3.912 20.865-3.635 31.41-0.06 9.4095-0.226 18.821 0 28.229l-148.02 64.64z"/>
  </g>
  <g fill="#000">
   <path d="m2971.9 2663.2c4.3376 0.7666 8.6146 1.7902 12.991 2.3629 0.5755 0.063 1.1509 0.1256 1.7264 0.1884l-18.818 13.307c-0.5686-0.085-1.1372-0.169-1.7058-0.2534-4.3733-0.7125-8.6776-1.819-13.088-2.283l18.894-13.322z"/>
   <path d="m3253.7 2703.7c1.4967 1.6588 2.9678 3.323 4.5381 4.9127l-19.581 11.965c-1.5942-1.6568-3.1195-3.3751-4.7573-4.9896l19.8-11.888z"/>
   <path d="m3235.1 2691.2c3.5624 4.1753 7.1441 8.3268 10.394 12.753 2.2027 2.6658 3.9428 5.5874 6.2601 8.1444 1.5012 0.8044 2.9512 1.4278 4.0415 2.8344l-19.933 11.927c-1.0774-1.1973-3.0243-1.3894-3.9522-2.805-2.2053-2.7119-3.9566-5.694-6.1108-8.4525-3.1428-4.3674-6.6432-8.4682-10.373-12.346l19.673-12.056z"/>
  </g>
  <path d="m2414.9 2391.2c62.803 77.386-21.864 162.05-92.719 86.57-56.146-51.518 46.075-124.68 92.719-86.57z" fill="#355c7d"/>
  <path d="m-3957 605.9l1016 677.34" stroke="#000" stroke-width=".26459px" fill="none"/>
 </g>
</svg>
