<?xml version="1.0" encoding="UTF-8" standalone="no"?>
<!-- Created with Inkscape (http://www.inkscape.org/) -->
<svg xmlns:rdf="http://www.w3.org/1999/02/22-rdf-syntax-ns#" xmlns="http://www.w3.org/2000/svg" height="30.577mm" width="1393.1mm" version="1.1" xmlns:cc="http://creativecommons.org/ns#" xmlns:dc="http://purl.org/dc/elements/1.1/" viewBox="0 0 1393.1082 30.577177">
 <metadata>
  <rdf:RDF>
   <cc:Work rdf:about="">
    <dc:format>image/svg+xml</dc:format>
    <dc:type rdf:resource="http://purl.org/dc/dcmitype/StillImage"/>
    <dc:title/>
   </cc:Work>
  </rdf:RDF>
 </metadata>
 <g transform="translate(296.06 -219.28)">
  <path d="m-283.5 221.71c1.7827 0.71673 3.8979 1.3435 5.9896 1.9761 1.3917 0.47642 2.9509 0.90039 4.461 1.3398 1.2334 0.38137 2.4502 0.76738 3.6803 1.1497 1.4296 0.40964 2.613 0.88655 4.0063 1.3056 1.0806 0.35915 2.2222 0.70203 3.1156 1.1074 0.57251 0.3438 1.4295 0.63187 2.1007 0.9557 0.84354 0.31324 1.4544 0.67571 2.162 1.0177 0.83413 0.4171 1.6787 0.83119 2.4937 1.2524 0.85077 0.31837 1.8229 0.60353 2.683 0.91948 0.93091 0.37742 2.0464 0.70974 2.9682 1.0883 1.1135 0.35863 2.2461 0.72056 3.5444 1.0196 1.5748 0.37417 3.1437 0.74619 4.7783 1.0961 1.4444 0.30567 2.8794 0.61078 4.3024 0.92545 1.4116 0.25191 2.6951 0.54895 3.9823 0.85527 1.5577 0.39863 3.3084 0.72876 5.1232 1.0122 1.8772 0.36621 3.9782 0.58149 6.0148 0.84391 1.8612 0.15758 3.5304 0.4397 5.2648 0.68607 1.4374 0.17091 2.8891 0.28471 4.2562 0.5093 1.4562 0.18516 2.9058 0.37956 4.4314 0.50826 1.7276 0.19346 3.4511 0.37605 5.086 0.63406 1.7923 0.27297 3.6315 0.51116 5.5093 0.72725 2.1945 0.31379 4.5821 0.47848 6.8672 0.72347 2.6308 0.2687 5.2618 0.53883 7.8493 0.8429 2.9965 0.32979 6.0532 0.60038 9.1073 0.87761 3.9694 0.39444 7.9941 0.73716 11.998 1.0991 4.2351 0.31834 8.5088 0.58462 12.847 0.73828 4.5217 0.15045 9.0352 0.29537 13.581 0.367 5.0736 0.11567 10.132 0.0209 15.197-0.0718 5.03-0.16603 10.042-0.38451 15.038-0.62498 4.8715-0.18358 9.7084-0.42863 14.548-0.6746 5.043-0.20137 10.029-0.49787 15.029-0.77301 5.6922-0.32024 11.263-0.80089 16.837-1.2649 4.4513-0.28906 8.7497-0.74322 13.132-1.1033 4.6574-0.34375 9.0372-0.90681 13.365-1.5131 3.9257-0.56162 7.957-1.0729 12.068-1.5013 3.3775-0.39814 6.7048-0.84183 9.8476-1.3861-3.5012 0.60264-6.9998 1.2066-10.504 1.8079-0.63587 0.10912 1.2651-0.22169 1.8998-0.33143 4.7514-0.82149 9.5217-1.6332 14.258-2.4622 3.4868-0.61025-6.9906 1.2118-10.508 1.8059-1.1057 0.18674 2.1419-0.4083 3.1945-0.62073 2.2608-0.48505 4.6684-0.90366 6.9471-1.3802 2.6472-0.58977 5.2105-1.2124 7.822-1.8169 2.4934-0.58396 5.1128-1.1161 7.7313-1.6478 2.7971-0.48548 5.4617-1.0317 8.0667-1.6039 2.3811-0.53181 4.7312-1.0755 7.17-1.5839 5.1705-1.1661 11.041-1.9676 16.561-2.9935 3.8394-0.71355-7.8348 1.3491-11.752 2.0237 1.3477-0.26239 2.6873-0.5263 3.9477-0.82545 0.8112-0.19289 1.6805-0.35983 2.4225-0.57681 0.72633-0.17387 1.3978-0.36562 2.1438-0.53455 4.8425-1.1378 10.197-2.9096 14.602-1.632 1.0565 0.29883 2.2229 0.55507 3.3778 0.81905 1.3679 0.45651 2.8564 0.86774 4.3943 1.2722 1.7884 0.38221 3.6892 0.69626 5.707 0.95553 1.5809 0.15929 2.9191 0.45914 4.3841 0.68796 1.3204 0.28169 2.925 0.37847 4.4189 0.55054 1.6706 0.15222 3.3748 0.28014 5.0099 0.46567 1.8392 0.23408 3.8576 0.22979 5.7656 0.37089 1.9214 0.15381 3.8987 0.20927 5.8778 0.24025 1.9655 0.0227 3.9329 0.0203 5.8995 0.0199 2.1146-0.001 4.2292-0.00053 6.3438-0.00019 2.2947-0.002 4.5894 0.00079 6.8842 0.00053 2.6231 0.0455 5.196-0.11954 7.7975-0.19305 3.1886-0.057 6.3614-0.0912 9.5395-0.19023 4.1733-0.21226 8.3699-0.37269 12.526-0.61556 4.4804-0.24176 8.9015-0.56956 13.389-0.80097 4.2782-0.28409 8.6097-0.4842 12.909-0.73445 4.3736-0.21672 8.7269-0.47872 13.032-0.79625 4.2966-0.27559 8.5945-0.55494 12.852-0.88121 3.9112-0.28934 7.8408-0.55029 11.781-0.8016 3.8624-0.27636 7.7519-0.5118 11.627-0.77376 4.0986-0.31636 8.2427-0.5975 12.433-0.78083 4.1558-0.18242 8.2222-0.49264 12.327-0.75014 4.5373-0.35725 9.1794-0.56134 13.79-0.80861 4.8411-0.23823 9.7368-0.34076 14.613-0.49091 5.6736-0.16613 11.377-0.18109 17.072-0.2006 6.3093-0.0464 12.623 0.0365 18.905 0.21141 5.6204 0.18544 11.264 0.27755 16.913 0.32753 4.8763 0.12066 9.755 0.22301 14.645 0.2774 4.0853 0.1331 8.1759 0.23718 12.281 0.29138 3.9264 0.1268 7.853 0.2291 11.763 0.3938 3.58 0.13804 7.1238 0.34832 10.668 0.55139 3.0483 0.13495 6.0922 0.26399 8.9564 0.61517 2.3208 0.31582 4.6619 0.62255 6.9705 0.94714 1.7068 0.30826 3.5281 0.54865 5.234 0.85591 1.0855 0.14853 2.223 0.29372 3.1698 0.51131 1.0604 0.28315 2.0213 0.59687 3.0137 0.90065 0.88095 0.27532 1.7731 0.54737 2.691 0.81171 0.81713 0.0625 1.2449 0.28383 1.7581 0.46916 0.52597 0.24659 1.1483 0.46269 1.6271 0.7207 0.60014 0.31751-0.0526 0.10145 0.44306 0.063 0.16073-0.004 0.2832-0.0173 0.38798-0.0474-4.1722 0.69463-8.3179 1.4037-12.517 2.0839-0.28921 0.0469 0.47227-0.14029 0.75762-0.18935 4.3885-0.75457 8.7737-1.5108 13.174-2.2594 4.0115-0.68244-7.9973 1.3784-12.008 2.0611-0.21165 0.036 0.40596-0.0805 0.60896-0.12075 7.8162-1.3929 29.126-4.9905 3.4192-0.58539 4.5819-0.81865 9.1927-1.5853 13.855-2.3958 4.0658-0.70681-8.1366 1.411-12.223 2.1071-0.29058 0.0495 0.53624-0.1197 0.81463-0.17509 4.3076 0.011 10.65-2.0802 16.144-2.5924 1.7931-0.1651 3.4815-0.40026 5.3428-0.50739 1.0438-0.0751 2.1097-0.0723 3.1744-0.0727 1.5267 0.0425 2.9813-0.0172 4.479-0.0958 2.5077-0.11155 5.0401-0.14248 7.5704-0.16621 2.8795-0.0156 5.7597-0.0121 8.6395-0.0104 3.1597 0.002 6.3195 0.003 9.4792 0.001 3.3024-0.0504 6.5639 0.0574 9.8418 0.15434 3.683 0.19569 7.3974 0.31759 11.092 0.49037 3.3959 0.13931 6.8077 0.19452 10.202 0.33517 3.0188 0.10736 6.0366 0.16441 9.0452 0.29481 3.1607 0.15269 6.3736 0.12523 9.5426 0.24107 3.2085 0.13526 6.4394 0.19984 9.675 0.23536 3.8826 0.15484 7.7887 0.23352 11.7 0.28241 3.8605 0.11164 7.7104 0.22766 11.549 0.3926 4.0188 0.12082 8.0309 0.25606 12.05 0.37708 3.9159 0.088 7.7934 0.28097 11.661 0.47784 3.7253 0.1466 7.3469 0.44927 11.051 0.6326 4.0742 0.1664 8.137 0.3552 12.197 0.55003 3.938 0.13768 7.8482 0.33119 11.794 0.44961 3.2885 0.0864 6.5376 0.25823 9.8311 0.33866 2.899 0.096 5.8316 0.1875 8.7043 0.34545 2.9725 0.15337 5.9632 0.23884 8.9352 0.39097 2.5723 0.16393 5.2142 0.13934 7.8031 0.25392 2.8217 0.14263 5.6767 0.19922 8.5325 0.23267 2.734 0.0258 5.4699 0.0228 8.205 0.0249 3.3407 0.002 6.6813 0.003 10.022 0.006 4.0112 0.002 8.0223 0.001 12.034 0.001 3.6906 0.002 7.3812-0.004 11.072-0.005 2.6356-0.002 5.2712-0.007 7.9069-0.009 2.0009-0.0292 4.0397 0.061 6.0104-0.0581 1.6284-0.11137 3.271-0.19257 4.9377-0.22734 1.308 0.0196 2.4294-0.17049 3.7007-0.23519 1.4534-0.0692 2.9166-0.17446 4.29-0.33927 2.1917-0.18922 4.3392-0.42284 6.5018-0.64143 0.35875-0.0294 0.72727-0.0498 1.0762-0.0883 0.63648-0.0922 1.0837-0.16287 1.7452-0.23573 0.79367-0.0874 1.5427-0.13916 2.2981-0.25507-0.3491 0.11231 1.948-0.28682 1.4768-0.20604-3.913 0.67067-15.711 2.6507-11.745 2.0087 4.9591-0.80266 10.243-1.8932 15.684-2.6057 2.1812-0.32836 4.3673-0.65413 6.6525-0.91434 4.5215-0.70049 11.31-1.9213-9.3928 1.6332-2.3095 0.39653 2.0272-0.38715 2.4441-0.47071 0.80305-0.0965 1.3327-0.31696 2.0622-0.44412 4.3086-0.75099 8.6328-1.4939 12.952-2.2392 4.0717-0.70254-8.1392 1.4073-12.209 2.1109 0.75078-0.14472 1.5309-0.28553 2.0576-0.50318 0.66323-0.27951 1.4769-0.48317 2.3787-0.68543 0.83258-0.18723 1.3837-0.47235 1.9706-0.72789 0.84518-0.30975 1.5854-0.63848 2.3329-0.96955 0.70665-0.34786 1.5687-0.6673 2.2302-1.0227 0.75082-0.27492 1.1094-0.6078 1.5913-0.92476 0.34256-0.25302 0.838-0.46636 1.3388-0.68943 0.18054-0.0805 0.29458-0.17245 0.46542-0.25417 5.163 0.31392 13.091-3.3668 13.304-1.6941-0.61504-0.42717 0.16591-0.20735 0.60974 0.0204 0.14814 0.0825 0.24375 0.17159 0.3353 0.2607-0.0301-0.0202-0.15981-0.0694-0.0917-0.0607 0.38333 0.049 1.3029 0.41952 1.8448 0.52773 0.94672 0.31482 2.0124 0.57598 3.1509 0.82522 1.0646 0.13892 2.0595 0.28612 2.9634 0.50664 1.2667 0.22404 2.5456 0.43741 3.751 0.69094 1.5637 0.34006 3.3423 0.54942 5.0692 0.79531 1.364 0.1649 2.5466 0.41253 3.9853 0.51908 1.5141 0.0747 2.9425 0.22924 4.4633 0.30395 1.6661 0.0708 3.2951 0.21833 4.9354 0.33561 1.0559 0.0534 2.1312 0.0416 3.1981 0.044 1.8557 0.0008 3.7115 0.005 5.5672 0.002 1.7101-0.003 3.4202-0.002 5.1302-0.006 1.4334 0.001 2.8669-0.00079 4.3005 0.00053 1.4706 0.004 2.9412-0.001 4.4118-0.001 0.97447-0.002 1.949-0.002 2.9235-0.004 0.72289-0.20622 1.7001-0.23426 2.6423-0.27606 1.0863-0.0156 2.1735-0.0228 3.261-0.0198 1.2463 0.0545 2.2482-0.0652 3.3986-0.18164 1.2918-0.0895 2.6192-0.0997 3.9387-0.10567 1.6998 0.0618 3.2448-0.0723 4.8808-0.17247 1.0001-0.0953 2.1128-0.0426 3.1197-0.10791 0.44214-0.0287 0.84249-0.0991 1.272-0.14163 1.3295-0.1169 2.703-0.15223 4.081-0.16801 1.0382-0.0412 2.0301-0.18495 3.0602-0.27506 0.61735-0.0151 1.2318-0.0435 1.8519-0.0469 0.84806 0.0417 0.47497-0.009 0.99317-0.1584 1.1257-0.0858 2.2884-0.0974 3.4444-0.10627 1.6034 0.0507 3.0685-0.0884 4.6183-0.175 1.9284-0.0936 3.8849-0.11095 5.8344-0.11745 2.4389-0.13066 4.9048-0.20886 7.3753-0.26062 2.2082-0.042 4.4212-0.04 6.6326-0.0404 2.3814-0.1477 4.8443-0.14377 7.2095-0.30726 2.4354-0.16056 4.9132-0.2235 7.398-0.2581 2.7062-0.14005 5.4249-0.23316 8.129-0.37642 2.8636-0.11891 5.6562-0.3277 8.5362-0.41219 3.6674-0.0972 7.3114-0.2529 10.985-0.33934 2.4388-0.16839 4.892-0.28016 7.386-0.33595 2.678-0.0121 5.3208-0.0348 7.9761-0.13955 2.7827-0.0534 5.4756-0.2632 8.2327-0.37484 3.0307-0.10238 6.0345-0.27606 9.0428-0.43 3.1798-0.14729 6.3171-0.36575 9.4448-0.58938 2.907-0.14031 5.7516-0.36412 8.6267-0.55196 3.6211-0.25947 7.209-0.55482 10.814-0.83199 3.1916-0.25276 6.4433-0.41771 9.6641-0.62926 3.259-0.16019 6.5181-0.32434 9.7959-0.44816 3.9843-0.084 7.9557-0.19796 11.934-0.30494 4.2359-0.11339 8.4893-0.12826 12.738-0.14819 3.6407-0.0398 7.2922 0.0322 10.875 0.22874 3.8404 0.1888 7.5842 0.50539 11.345 0.7981 4.1741 0.31704 8.3331 0.65366 12.51 0.96684 3.0653 0.25745 6.1021 0.54756 8.9845 0.95456 2.3783 0.28741 4.5693 0.68106 6.7999 1.0535 2.0888 0.40616 4.1982 0.80321 6.3979 1.1544 2.0808 0.3986 4.3044 0.73253 6.3545 1.1442 1.6975 0.2584 2.988 0.67639 4.4073 1.0428 1.1518 0.24929 2.0517 0.61465 3.303 0.81985 0.8634 0.11662 1.4215 0.37739 2.0229 0.5893 0.2224 0.0786 0.4468 0.15673 0.6665 0.23602 0.2625 0.1038 0.2505 0.20119 0.2531 0.31852v0.0631l-13.2 2.0011c0.014-0.0888-0.01 0.0474 0.01-0.0619 0.01-0.0875-0.061-0.20163 0.206-0.0582-0.1839-0.0784-0.3794-0.15429-0.5792-0.22914-0.5193-0.19063-1.0338-0.37408-1.7792-0.48829-1.1738-0.27366-2.2136-0.59654-3.3704-0.8771-1.3283-0.36664-2.6534-0.73254-4.2514-0.99506-2.0486-0.39121-4.1677-0.7511-6.2568-1.1224-2.1807-0.36774-4.3165-0.75556-6.4298-1.1565-2.1692-0.37732-4.3834-0.7289-6.6892-1.0272-2.8383-0.36886-5.777-0.66385-8.7611-0.9086-4.1609-0.3286-8.3199-0.65893-12.494-0.97254-3.7446-0.29548-7.507-0.57159-11.337-0.75034-3.535-0.15227-7.0932-0.22581-10.666-0.17913-4.2248 0.0163-8.4511 0.0542-12.66 0.17264-3.9823 0.11329-7.9702 0.2044-11.947 0.33113-3.266 0.14325-6.5345 0.29019-9.7738 0.48018-3.2118 0.1861-6.3982 0.39948-9.5726 0.63723-3.6122 0.28893-7.2386 0.56077-10.87 0.82719-2.8701 0.20419-5.7534 0.38543-8.6447 0.56029-3.1296 0.21863-6.2841 0.40684-9.4568 0.56051-3.0316 0.16383-6.0704 0.31991-9.1279 0.43391-2.7442 0.13068-5.4659 0.30152-8.244 0.3621-2.6754 0.0845-5.3597 0.0734-8.0401 0.13793-2.454 0.0763-4.8594 0.23518-7.3111 0.31527-3.6639 0.0925-7.3038 0.2449-10.961 0.35627-2.8477 0.12614-5.659 0.31436-8.5115 0.43318-2.7419 0.13827-5.5012 0.25214-8.2634 0.34517-2.4566 0.0521-4.8929 0.15174-7.3044 0.30334-2.4456 0.0992-4.9027 0.19376-7.3632 0.24592-2.19 0.006-4.3821 0.0151-6.5666 0.0658-2.485 0.0645-4.9473 0.18173-7.4308 0.24555-1.9184 0.0255-3.8417 0.0595-5.7231 0.18298-1.5764 0.0965-3.1442 0.12461-4.7518 0.13475-1.0786 0.0344-2.2014 0.0757-3.0953 0.27578-0.48933 0.0429-0.91967-0.037-1.4144 0.0125-0.54968 0.0251-1.1068 0.047-1.6251 0.11077-1.0628 0.0949-2.0858 0.21046-3.2193 0.19221-1.3221 0.0425-2.6219 0.11596-3.8896 0.2391-1.4573 0.10688-2.9856 0.10337-4.443 0.21916-1.6674 0.10349-3.334 0.11137-5.0337 0.11829-1.2687 0.0264-2.5365 0.0712-3.7454 0.1963-1.2062 0.0906-2.4035 0.094-3.6446 0.0853-1.0399 0.009-2.095 0.0124-3.1087 0.0897-0.94611 0.0739-1.8242 0.24559-2.8277 0.20765-0.96258-0.002-1.9252-0.002-2.8878-0.004-1.4664-0.00024-2.9327-0.005-4.399-0.001-1.4348 0.001-2.8695-0.00053-4.3043 0.00053-1.6945-0.003-3.389-0.002-5.0836-0.003-1.8744-0.00079-3.7488 0.007-5.6233 0.002-1.1558-0.007-2.3124-0.0185-3.4244-0.12426-1.593-0.13126-3.1942-0.25599-4.8343-0.32316-1.5378-0.0997-3.061-0.22185-4.5806-0.34233-1.4039-0.15825-2.687-0.39215-4.0663-0.5688-1.8103-0.24019-3.5292-0.52889-5.1859-0.85404-1.2719-0.23806-2.6089-0.44448-3.8466-0.69915-0.95407-0.18738-2.0195-0.31223-2.9487-0.51243-1.1195-0.25707-2.1511-0.53533-3.1708-0.82643-0.88507-0.22321-1.7663-0.46743-2.4246-0.75269 0.0166-0.0368 0.0135-0.074-0.0301-0.11092 0.56886 0.3172-1.1085-0.16048-1.0006-0.22788 0.32634-1.5259 12.546-3.7598 13.29-2.1908-0.0822 0.11656-0.24909 0.22538-0.41099 0.33398-0.39531 0.25928-1.0234 0.41912-1.3794 0.68117-0.61478 0.31621-0.8849 0.66421-1.5372 0.97587-0.77472 0.27764-0.0618-0.006-0.67891 0.34208-0.43633 0.24629-1.2829 0.41141-1.5456 0.69512-0.82288 0.31423-1.3808 0.67561-2.3072 0.96348-0.66592 0.26575-1.2728 0.54455-1.8259 0.82199-0.0365 0.0107-0.76659 0.22633-0.77669 0.22823-0.63199 0.11808-1.3768 0.16728-1.6702 0.41087-0.69367 0.17356-1.0262 0.46951-1.9149 0.60095-4.327 0.75476-8.787 1.4452-12.981 2.2643-3.95 0.77138 8.1697-1.4116 12.248-2.121 0.32267-0.0561-0.68694 0.0914-0.98768 0.15748-0.40501 0.0889-0.68854 0.22188-1.1282 0.29894-0.8832 0.14006-1.6203 0.32762-2.479 0.47798-5.073 0.88834-10.182 1.941-15.71 2.6357-2.2374 0.29125-4.4179 0.61829-6.6188 0.93317-0.71944 0.10604-2.8452 0.44241-2.1539 0.32077 16.384-2.8827 14.998-2.5514-1.822 0.29238-0.48274 0.0816-1.0508 0.11094-1.5356 0.19135-1.7216 0.17266-3.384 0.39062-5.1277 0.54412-2.1687 0.22647-4.3618 0.43175-6.5448 0.64537-1.4633 0.11726-2.9149 0.23621-4.4099 0.31172-1.2567 0.10566-2.4913 0.18892-3.8075 0.19105-1.6342 0.061-3.2443 0.16128-4.8764 0.22631-2.0312 0.0281-4.0654 0.008-6.0983 0.0126-2.6082-0.002-5.2164-0.007-7.8246-0.009-3.6742-0.001-7.3483-0.007-11.023-0.005-4.0156-0.00016-8.0311-0.0008-12.047 0.002-3.3656 0.004-6.7311 0.007-10.097 0.009-2.7504 0.0002-5.5015-0.004-8.2496-0.0408-2.8749-0.0501-5.7403-0.12936-8.589-0.25828-2.6193-0.0709-5.2555-0.10518-7.8352-0.2724-2.9674-0.14637-5.9639-0.22722-8.9223-0.39214-2.8727-0.12522-5.755-0.24223-8.6466-0.31959-3.2727-0.10091-6.5142-0.27088-9.7924-0.35586-3.9452-0.13988-7.875-0.31601-11.813-0.47289-4.0624-0.19778-8.137-0.3711-12.207-0.55333-3.6982-0.19772-7.3468-0.47303-11.071-0.62719-3.8366-0.19506-7.6909-0.36693-11.571-0.46222-4.04-0.12882-8.0868-0.23479-12.119-0.38244-3.7987-0.15867-7.6172-0.27308-11.44-0.36536-3.9278-0.059-7.8411-0.16307-11.758-0.26752-3.2543-0.0448-6.4936-0.13618-9.7266-0.2564-3.1984-0.0772-6.4137-0.10062-9.5897-0.2507-3.0029-0.11975-6.0306-0.16053-9.0276-0.29626-3.3904-0.13288-6.8102-0.18187-10.186-0.35023-3.6787-0.17407-7.3808-0.29844-11.063-0.46529-3.259-0.0938-6.5113-0.15001-9.7882-0.11406-3.1577-0.002-6.3154-0.003-9.4731-0.002-2.8826 0.002-5.7662 0.001-8.6475 0.0318-2.5116 0.0316-5.0216 0.0859-7.5016 0.21464-1.5564 0.063-3.1133 0.0634-4.6814 0.0692-0.9936 0.0137-1.9728 0.0606-2.9346 0.13763-1.7638 0.15787-3.4598 0.37046-5.2 0.54933-5.0399 0.72246-13.681 1.5393 9.1199-1.6981-4.7539 0.757-8.6313 1.3916-13.836 2.4074-3.939 0.76881 8.1241-1.4185 12.2-2.1209 0.29657-0.0511-1.2311 0.25589-0.82977 0.181-4.3756 0.75184-8.7478 1.5054-13.127 2.2555-0.35316 0.0605-1.4232 0.23633-1.0715 0.1751 3.9657-0.69023 7.9213-1.3857 11.901-2.0685 0.39468-0.0677-1.4289 0.30561-1.1494 0.2202-4.738 0.79291-7.0219 1.1738-13.771 2.392-3.9645 0.71559 8.0071-1.3918 12.018-2.0837 0.1524-0.0263-0.28055 0.0652-0.44156 0.0866-0.11995 0.0159-0.27184 0.004-0.38627 0.0232-4.3637 0.73203-8.6876 1.4851-13.031 2.2277-0.20032-0.0268-0.41699-0.0391-0.62114-0.0635-0.57263-0.0811-0.91763-0.2212-1.1119-0.39772-0.39353-0.23599-0.98289-0.42295-1.46-0.64286-0.50583-0.17924-1.0513-0.30381-1.6932-0.43788-0.87519-0.27812-1.774-0.54937-2.6644-0.8231-0.9093-0.28594-1.809-0.58131-2.8664-0.81897-1.029-0.17006-2.0712-0.33058-3.1072-0.49648-1.6483-0.29631-3.3754-0.55487-5.0588-0.83221-2.3007-0.30886-4.5765-0.63506-6.9036-0.92504-2.8361-0.29508-5.811-0.40426-8.755-0.56546-3.5213-0.2044-7.0534-0.39692-10.611-0.53642-3.8745-0.1627-7.7758-0.25848-11.671-0.36539-4.0907-0.0663-8.1614-0.19226-12.242-0.29634-4.8628-0.0698-9.7118-0.19295-14.569-0.28857-5.6481-0.0612-11.284-0.17683-16.904-0.35818-6.2518-0.15353-12.523-0.23708-18.797-0.18121-5.7094 0.0296-11.426 0.0728-17.108 0.25596-4.8563 0.15373-9.7395 0.24876-14.549 0.51383-4.6327 0.23767-9.2516 0.49449-13.814 0.8359-4.0989 0.27597-8.2079 0.53664-12.362 0.72837-4.1594 0.21739-8.2844 0.49203-12.376 0.80372-3.8864 0.26987-7.801 0.49761-11.678 0.77903-3.9135 0.25755-7.8318 0.50614-11.715 0.80297-4.2749 0.30766-8.5676 0.5924-12.86 0.87734-4.3314 0.29529-8.688 0.55624-13.068 0.77869-4.3108 0.23226-8.6136 0.47445-12.91 0.73053-4.4688 0.24934-8.8938 0.56427-13.371 0.80113-4.2088 0.22616-8.436 0.41923-12.668 0.60171-3.1944 0.0935-6.4011 0.10899-9.5948 0.20504-2.6331 0.0922-5.2587 0.20438-7.9194 0.16284-2.2972-0.00027-4.5945 0.003-6.8917 0.002-2.1222 0.001-4.2443 0.004-6.3665 0.004-1.9863-0.002-3.9747-0.003-5.9572-0.0441-2.0202-0.0517-4.0181-0.14451-5.9892-0.28902-1.9918-0.0976-3.9879-0.19004-5.876-0.41568-1.689-0.15464-3.3902-0.29912-5.0576-0.47322-1.5565-0.17477-3.1682-0.30745-4.5487-0.59775-1.396-0.24022-2.7607-0.49722-4.2728-0.67026-2.0894-0.29884-4.0863-0.63987-5.9228-1.0653-1.5239-0.39471-2.95-0.81436-4.384-1.2368-1.2148-0.26939-2.4174-0.54742-3.5076-0.86142-0.5049-0.14856-0.95976-0.27822-0.90152-0.28838 19.011-3.3155 17.119-2.6617 12.576-1.991-0.80023 0.14154-1.6811 0.28389-2.2252 0.51172-0.90376 0.15939-1.4792 0.43692-2.4514 0.56855-1.2551 0.31283-2.5203 0.62551-3.9514 0.86518-26.725 4.7005-9.2952 1.6267-1.5989 0.30267 0.28037-0.0482-0.53208 0.11014-0.80523 0.16195-1.9168 0.36356 0.31618-0.0931-1.5954 0.32738-0.28261 0.0622-0.57582 0.11993-0.86373 0.1799-2.4624 0.51422-4.9136 1.0266-7.2768 1.5806-2.5511 0.5833-5.1475 1.1604-7.9646 1.624-2.7047 0.49839-5.2753 1.0629-7.846 1.6203-2.579 0.60576-5.1873 1.2008-7.7248 1.8187-2.2387 0.51589-4.6982 0.92653-7.0295 1.4028-0.98489 0.20948-2.1681 0.47015-3.2062 0.6529-9.9375 1.7493-24.537 4.2417-3.7554 0.66176 0.63287-0.10902-1.26 0.22098-1.89 0.33148-4.7373 0.8176-9.4746 1.6352-14.212 2.4528-3.2397 0.51144-6.5751 0.97061-10.025 1.3417-4.0255 0.456-8.0261 0.93534-11.89 1.505-4.3953 0.59515-8.8742 1.1191-13.56 1.4758-4.3234 0.38838-8.6582 0.76097-13.049 1.0775-5.6008 0.45234-11.187 0.93031-16.905 1.2363-5.0179 0.28792-10.043 0.56047-15.1 0.77993-4.8349 0.24725-9.6827 0.46404-14.541 0.66567-5.0214 0.22829-10.045 0.4664-15.11 0.59056-5.1045 0.0927-10.208 0.1478-15.317 0.0356-4.5776-0.0828-9.1322-0.22374-13.687-0.38208-4.3768-0.18125-8.7013-0.45772-12.97-0.79872-4.0222-0.35816-8.0524-0.70851-12.055-1.0861-3.1057-0.2702-6.1918-0.55695-9.2259-0.89326-2.5974-0.28739-5.2035-0.56759-7.8327-0.82803-2.3357-0.22764-4.7139-0.42538-6.9524-0.73242-1.8913-0.23326-3.7652-0.47498-5.5902-0.75221-1.6202-0.22058-3.2788-0.41172-4.9711-0.57748-1.5549-0.16222-3.09-0.34386-4.5685-0.56152-1.3992-0.18231-2.8795-0.29772-4.2335-0.51102-1.6884-0.25307-3.4071-0.47884-5.185-0.6703-2.1051-0.25187-4.1548-0.53307-6.1058-0.88174-1.8472-0.31533-3.6486-0.65619-5.2821-1.0657-1.2919-0.2949-2.6087-0.57182-3.9558-0.84293-1.4318-0.30613-2.8443-0.61982-4.2761-0.92595-1.6601-0.35354-3.2092-0.74828-4.8346-1.1157-1.3498-0.33849-2.6248-0.70708-3.7599-1.1104-0.93154-0.36611-2.003-0.69963-2.9379-1.0656-0.93688-0.32811-1.9802-0.62964-2.8025-0.9855-0.80165-0.41678-1.6208-0.82819-2.4632-1.2373-0.7314-0.33939-1.3504-0.69936-2.1914-1.0158-0.67024-0.31928-1.5165-0.60531-2.0639-0.9484-0.84854-0.38196-1.955-0.69957-2.9556-1.0447-1.3384-0.43362-2.5607-0.89903-4.0042-1.3034-1.223-0.37738-2.4152-0.76369-3.6506-1.1374-1.5295-0.43883-3.0033-0.89128-4.4291-1.361-2.0892-0.65067-4.1119-1.3171-6.1008-1.9958l12.56-2.2553z" fill="#355c7d"/>
 </g>
</svg>
