<svg xmlns="http://www.w3.org/2000/svg" viewBox="0 0 120 22">
  <path fill="#fff" d="M12.7 12.4c-.1 2.5-.3 2.8-3.2 2.898h-.8c-2.4-.1-3.1-.6-3.1-2.7V6.7h9V4.6h-9V1.8H2.9v2.9H0v2.1h2.9v6.6c0 1 .3 2.1 1.1 2.8.8.8 2.2 1.2 4.3 1.2h1.2c2.5 0 3.8-.5 4.6-1.3.7-.802.8-2 .8-3.2v-1.5h-2.3v1h.1zm17.9-6.9c-.9-.7-2.4-1-4.5-1H24c-1.4 0-3 .3-3.9 1.5V4.6h-2.5v12.5h2.7V9.3c0-1.5 1-2.7 3.3-2.7H25c4 .1 4.4.3 4.5 3.3v.7H32V8.9c-.1-1.5-.5-2.7-1.4-3.4zM48 13.7c0 .7-.3 1-1.2 1.3-.9.3-2.3.3-4.3.3h-3c-3.1-.1-3.4-.5-3.4-1.7v-.4c0-1.4.6-1.6 3.5-1.7h3.5c1.7 0 3 0 3.8.3.8.3 1.1.6 1.1 1.4v.5zm-4.6-9.2h-3.6c-2 0-3.5.2-4.4.8-1 .5-1.4 1.4-1.4 2.6v.8h2.7v-.8c0-.9.3-1.4 3.2-1.4h3.3c3.5 0 4.8.3 4.8 2.3v1.8c-.8-.9-2.1-1.1-4.6-1.1h-3.6c-2 0-3.5.1-4.6.5-1.1.4-1.7 1.3-1.7 2.8v.8c0 1.2.2 2.102.9 2.8.7.7 1.8 1 3.6 1h5.4c2.9 0 4-.198 4.6-1v.802h2.7V8.8c0-3.8-3.1-4.3-7.3-4.3zm25.7 1.2c-.9-.8-2.4-1.3-4.5-1.3h-3.4c-2.5 0-4.3.3-5.3 1.8V4.6h-2.5v12.5h2.7V10c0-2.7 1-3.5 6.3-3.5h.6c4.4.1 4.7 1 4.7 2.7v7.9h2.7V8.8c-.1-1.2-.4-2.3-1.3-3.1zm19.3 4.7c-1.102-.5-2.5-.6-4.2-.6h-6c-2.4-.1-2.5-.5-2.5-1.4V8c0-.7.1-.9.6-1.1.5-.2 1.5-.3 3.1-.3h3.9c1.2 0 2.2 0 2.8.2.6.2.9.5.9 1.4v.3h2.5v-.8c0-.9-.2-1.8-1.1-2.3-.9-.6-2.4-.9-4.9-.9H80c-2.8 0-4.5.3-5.6.8-1 .5-1.4 1.4-1.4 2.4v.7c0 1.2.3 2.1 1.1 2.6.8.6 1.9.8 3.5.8h6.9c2.7.1 2.8.5 2.9 1.6v.102c0 .9-.2 1.2-.8 1.5-.6.198-1.7.298-3.4.298h-4.9c-2.3 0-2.9-.5-3-1.9v-.8h-2.5v.9c0 1.9.8 2.9 2.1 3.4 1.2.5 2.9.5 4.5.5h4.2c2.7 0 6.4-.102 6.4-3.7.1-1.8-.6-2.8-1.6-3.3zM96.5 0h2.7v2.2h-2.7zm0 4.6h2.7v12.5h-2.7zm20.8 7.6c0 2.7-1.3 3.1-4 3.1h-4c-2.4 0-4.1-.4-4.2-3.2V9.8c0-2 1-3.3 3.9-3.3h4.5c3.1.1 3.8 1 3.8 3.3v2.4zm.7-6.7c-1.2-.8-2.8-1-4.4-1h-4.3c-1.8 0-3.4.5-4.3 1.6V4.6h-2.5v16.8h2.7v-5.3c.6.9 1.8 1.3 3.8 1.3h4.3c2.3 0 4-.3 5.2-1.2 1.1-.9 1.6-2.3 1.6-4.3V9.8c-.1-2.2-.9-3.5-2.1-4.3z"></path>
</svg>
